<?xml version="1.0" encoding="windows-1252"?>
<!-- Generator: Adobe Illustrator 25.1.0, SVG Export Plug-In . SVG Version: 6.00 Build 0)  -->
<svg version="1.1" id="Layer_1" xmlns="http://www.w3.org/2000/svg" xmlns:xlink="http://www.w3.org/1999/xlink" x="0px" y="0px" width="711.286px" height="700.582px" viewBox="0 0 711.286 700.582" enable-background="new 0 0 711.286 700.582" xml:space="preserve">
<path d="M711.187,342.278c-0.059-2.611-0.152-5.216-0.272-7.816c-0.001-0.03-0.002-0.059-0.003-0.089  c-0.113-2.512-0.261-5.018-0.427-7.52c-0.019-0.288-0.034-0.578-0.054-0.866c-0.162-2.338-0.354-4.67-0.562-6.999  c-0.04-0.449-0.075-0.899-0.117-1.348c-0.207-2.223-0.442-4.441-0.692-6.656c-0.062-0.55-0.12-1.1-0.185-1.65  c-0.252-2.144-0.528-4.283-0.82-6.418c-0.083-0.612-0.165-1.223-0.252-1.834c-0.296-2.087-0.614-4.168-0.947-6.245  c-0.105-0.654-0.21-1.307-0.319-1.96c-0.34-2.042-0.698-4.08-1.074-6.113c-0.125-0.677-0.253-1.354-0.383-2.03  c-0.385-2.013-0.785-4.021-1.205-6.024c-0.143-0.684-0.292-1.367-0.44-2.05c-0.431-1.995-0.875-3.985-1.341-5.97  c-0.159-0.678-0.325-1.353-0.488-2.029c-0.479-1.988-0.97-3.973-1.484-5.95c-0.17-0.652-0.348-1.301-0.522-1.952  c-0.533-1.999-1.075-3.996-1.643-5.984c-0.17-0.596-0.351-1.189-0.525-1.784c-0.595-2.038-1.198-4.073-1.83-6.099  c-0.153-0.489-0.315-0.974-0.47-1.462c-0.675-2.128-1.359-4.253-2.075-6.367c-0.083-0.245-0.172-0.487-0.255-0.732  c-1.744-5.112-3.615-10.179-5.598-15.201c-1.808-4.581-3.708-9.125-5.714-13.626c-0.078-0.175-0.151-0.351-0.229-0.525  c-0.812-1.814-1.656-3.615-2.5-5.415c-0.333-0.71-0.655-1.426-0.993-2.134c-0.76-1.594-1.548-3.175-2.333-4.757  c-0.449-0.906-0.89-1.815-1.347-2.717c-0.745-1.47-1.515-2.929-2.282-4.389c-0.526-1.001-1.046-2.005-1.582-3.001  c-0.744-1.383-1.508-2.756-2.271-4.13c-0.591-1.063-1.179-2.126-1.781-3.183c-0.75-1.317-1.516-2.625-2.284-3.932  c-0.644-1.097-1.289-2.194-1.946-3.285c-0.762-1.266-1.538-2.525-2.317-3.783c-0.694-1.12-1.391-2.237-2.098-3.35  c-0.775-1.219-1.56-2.433-2.351-3.644c-0.742-1.136-1.491-2.269-2.247-3.397c-0.788-1.176-1.583-2.348-2.386-3.515  c-0.791-1.15-1.591-2.295-2.397-3.436c-0.8-1.134-1.604-2.265-2.419-3.391c-0.839-1.16-1.69-2.312-2.545-3.462  c-0.813-1.095-1.626-2.189-2.453-3.275c-0.89-1.17-1.795-2.331-2.701-3.491c-0.819-1.049-1.637-2.1-2.469-3.141  c-0.95-1.188-1.917-2.366-2.883-3.543c-0.82-0.999-1.635-2.001-2.466-2.992c-1.017-1.212-2.054-2.411-3.089-3.612  c-0.81-0.94-1.612-1.885-2.433-2.817c-1.111-1.262-2.245-2.508-3.376-3.756c-0.774-0.855-1.538-1.717-2.322-2.566  c-1.275-1.38-2.576-2.742-3.876-4.106c-0.667-0.7-1.321-1.409-1.994-2.104c-1.985-2.05-3.996-4.081-6.037-6.091  C539.917,36.424,450.62,0,355.643,0S171.369,36.424,104.201,102.563c-2.041,2.01-4.052,4.041-6.037,6.091  c-0.673,0.695-1.327,1.404-1.994,2.104c-1.299,1.363-2.601,2.725-3.876,4.106c-0.784,0.849-1.548,1.711-2.322,2.566  c-1.131,1.248-2.265,2.494-3.376,3.756c-0.821,0.933-1.623,1.877-2.433,2.817c-1.035,1.201-2.072,2.4-3.089,3.612  c-0.832,0.991-1.647,1.993-2.466,2.992c-0.967,1.178-1.934,2.355-2.884,3.544c-0.831,1.04-1.647,2.089-2.465,3.136  c-0.908,1.163-1.815,2.326-2.707,3.499c-0.825,1.085-1.638,2.177-2.449,3.27c-0.855,1.151-1.707,2.304-2.546,3.464  c-0.814,1.126-1.619,2.257-2.419,3.391c-0.806,1.142-1.606,2.287-2.397,3.437c-0.803,1.167-1.597,2.338-2.385,3.514  c-0.757,1.13-1.507,2.264-2.25,3.401c-0.789,1.208-1.573,2.42-2.346,3.637c-0.709,1.116-1.408,2.236-2.104,3.359  c-0.778,1.255-1.552,2.512-2.313,3.775c-0.657,1.092-1.303,2.189-1.948,3.288c-0.768,1.308-1.535,2.616-2.285,3.933  c-0.602,1.056-1.189,2.119-1.78,3.181c-0.763,1.373-1.526,2.745-2.27,4.128c-0.538,1-1.06,2.006-1.587,3.011  c-0.766,1.458-1.534,2.916-2.279,4.384c-0.457,0.901-0.897,1.81-1.346,2.715c-0.785,1.582-1.572,3.162-2.332,4.755  c-0.341,0.715-0.666,1.438-1.003,2.155c-0.841,1.795-1.682,3.589-2.491,5.397c-0.078,0.174-0.151,0.351-0.229,0.525  c-2.101,4.715-4.094,9.475-5.979,14.278c-1.885,4.803-3.661,9.648-5.327,14.533c-0.086,0.251-0.177,0.5-0.262,0.751  c-0.716,2.114-1.4,4.239-2.075,6.368c-0.154,0.487-0.316,0.971-0.468,1.458c-0.632,2.026-1.236,4.062-1.83,6.101  c-0.174,0.595-0.354,1.187-0.524,1.783c-0.569,1.989-1.111,3.986-1.644,5.986c-0.173,0.65-0.351,1.298-0.52,1.948  c-0.515,1.979-1.005,3.965-1.485,5.954c-0.163,0.675-0.329,1.349-0.487,2.025c-0.466,1.985-0.91,3.977-1.342,5.973  c-0.147,0.682-0.296,1.364-0.439,2.047c-0.42,2.004-0.821,4.013-1.206,6.027c-0.129,0.675-0.257,1.351-0.382,2.028  c-0.376,2.033-0.734,4.071-1.074,6.114c-0.109,0.653-0.214,1.306-0.319,1.96c-0.333,2.076-0.65,4.155-0.946,6.24  c-0.087,0.615-0.17,1.23-0.253,1.846c-0.291,2.133-0.567,4.27-0.819,6.412c-0.064,0.549-0.123,1.099-0.185,1.648  c-0.249,2.215-0.485,4.433-0.692,6.657c-0.042,0.448-0.077,0.898-0.117,1.346c-0.208,2.329-0.401,4.662-0.562,7.001  c-0.02,0.288-0.034,0.576-0.054,0.864c-0.167,2.502-0.314,5.009-0.427,7.521c-0.001,0.03-0.002,0.061-0.003,0.092  c-0.117,2.6-0.209,5.204-0.272,7.813C0.035,344.944,0,347.615,0,350.291c0,3.026,0.041,6.046,0.12,9.06  c0.009,0.364,0.03,0.726,0.04,1.09c0.079,2.696,0.178,5.39,0.318,8.075c0.006,0.115,0.015,0.229,0.021,0.344  c0.167,3.138,0.381,6.267,0.63,9.389c0.094,1.173,0.215,2.341,0.32,3.512c0.147,1.634,0.277,3.271,0.447,4.9  c0.051,0.49,0.111,0.978,0.165,1.467c0.051,0.473,0.106,0.944,0.159,1.417c0.33,2.927,0.691,5.847,1.095,8.757  c0.044,0.318,0.093,0.634,0.138,0.952c0.433,3.059,0.897,6.111,1.409,9.151c0.037,0.219,0.07,0.439,0.107,0.658  c0.343,2.012,0.713,4.016,1.091,6.019c0.113,0.598,0.222,1.196,0.338,1.793c0.365,1.881,0.751,3.757,1.147,5.63  c0.148,0.697,0.296,1.394,0.448,2.091c0.4,1.835,0.814,3.666,1.244,5.492c0.164,0.698,0.334,1.394,0.503,2.09  c0.447,1.849,0.902,3.695,1.38,5.534c0.148,0.571,0.306,1.14,0.457,1.711c0.947,3.571,1.964,7.119,3.025,10.653  c1.485,4.947,3.067,9.862,4.772,14.732c0.253,0.722,0.498,1.445,0.756,2.165c0.577,1.613,1.174,3.217,1.775,4.821  c0.33,0.882,0.66,1.764,0.997,2.644c0.588,1.531,1.189,3.056,1.799,4.579c0.376,0.938,0.756,1.874,1.141,2.809  c0.61,1.484,1.226,2.965,1.857,4.441c0.41,0.96,0.831,1.915,1.25,2.871c0.637,1.454,1.275,2.908,1.932,4.354  c0.43,0.945,0.875,1.883,1.314,2.824c0.677,1.454,1.349,2.91,2.046,4.355c0.269,0.558,0.553,1.109,0.826,1.666  c1.442,2.944,2.931,5.866,4.458,8.771c0.57,1.085,1.133,2.173,1.715,3.252c0.658,1.22,1.337,2.43,2.01,3.643  c0.631,1.136,1.26,2.272,1.903,3.402c0.67,1.175,1.353,2.344,2.037,3.512c0.68,1.161,1.364,2.32,2.058,3.474  c0.681,1.133,1.37,2.262,2.065,3.388c0.734,1.189,1.478,2.373,2.227,3.554c0.683,1.077,1.367,2.155,2.062,3.225  c0.814,1.253,1.644,2.497,2.474,3.741c0.66,0.989,1.314,1.981,1.985,2.963c1.012,1.482,2.046,2.95,3.082,4.418  c0.515,0.73,1.018,1.467,1.539,2.193c1.54,2.147,3.108,4.278,4.7,6.394c0.558,0.742,1.133,1.473,1.697,2.211  c1.09,1.426,2.183,2.85,3.297,4.262c0.673,0.853,1.36,1.697,2.041,2.544c1.036,1.289,2.077,2.574,3.133,3.851  c0.718,0.868,1.445,1.731,2.173,2.593c1.054,1.25,2.117,2.493,3.191,3.73c0.736,0.848,1.474,1.694,2.219,2.536  c1.116,1.262,2.245,2.514,3.381,3.762c0.719,0.791,1.435,1.583,2.163,2.368c1.256,1.356,2.532,2.699,3.812,4.038  c0.627,0.656,1.245,1.318,1.878,1.971c1.921,1.98,3.863,3.945,5.836,5.888c67.168,66.138,156.465,102.563,251.442,102.563  s184.274-36.424,251.442-102.563c1.973-1.943,3.915-3.908,5.836-5.888c0.633-0.652,1.251-1.315,1.878-1.971  c1.28-1.34,2.556-2.682,3.812-4.038c0.727-0.785,1.443-1.578,2.163-2.368c1.136-1.248,2.265-2.5,3.381-3.762  c0.745-0.842,1.483-1.688,2.219-2.536c1.073-1.237,2.136-2.481,3.191-3.73c0.728-0.862,1.454-1.725,2.173-2.593  c1.057-1.277,2.098-2.564,3.135-3.853c0.68-0.846,1.365-1.688,2.037-2.539c1.117-1.416,2.214-2.845,3.307-4.275  c0.561-0.734,1.133-1.461,1.687-2.198c1.592-2.117,3.161-4.249,4.701-6.396c0.522-0.727,1.025-1.465,1.541-2.196  c1.035-1.467,2.069-2.934,3.08-4.414c0.673-0.986,1.329-1.98,1.991-2.972c0.828-1.24,1.656-2.48,2.467-3.73  c0.697-1.073,1.382-2.153,2.067-3.233c0.748-1.179,1.49-2.361,2.223-3.548c0.696-1.127,1.385-2.258,2.067-3.392  c0.693-1.153,1.377-2.311,2.057-3.471c0.684-1.168,1.367-2.336,2.037-3.511c0.644-1.131,1.274-2.269,1.905-3.406  c0.673-1.212,1.351-2.422,2.009-3.642c0.58-1.075,1.14-2.158,1.708-3.238c1.541-2.93,3.042-5.878,4.496-8.848  c0.261-0.534,0.534-1.063,0.793-1.599c0.698-1.444,1.369-2.901,2.046-4.354c0.439-0.942,0.885-1.881,1.316-2.828  c0.657-1.445,1.294-2.898,1.931-4.352c0.419-0.956,0.84-1.911,1.25-2.871c0.63-1.474,1.246-2.954,1.855-4.436  c0.385-0.938,0.767-1.876,1.144-2.817c0.61-1.522,1.211-3.047,1.798-4.578c0.337-0.876,0.665-1.756,0.994-2.635  c0.602-1.607,1.2-3.215,1.778-4.83c0.256-0.717,0.501-1.438,0.753-2.157c1.462-4.177,2.844-8.383,4.144-12.617  c1.301-4.234,2.52-8.495,3.656-12.782c0.15-0.567,0.307-1.132,0.454-1.701c0.478-1.842,0.934-3.69,1.382-5.541  c0.168-0.694,0.337-1.387,0.501-2.082c0.43-1.826,0.844-3.658,1.244-5.493c0.152-0.698,0.301-1.397,0.45-2.096  c0.396-1.871,0.781-3.744,1.146-5.623c0.117-0.6,0.226-1.202,0.34-1.803c0.378-2,0.747-4.002,1.09-6.011  c0.038-0.221,0.071-0.444,0.108-0.665c0.303-1.798,0.592-3.599,0.868-5.404c0.826-5.414,1.527-10.859,2.096-16.333c0,0,0,0,0-0.001  v0c0.614-5.903,1.083-11.836,1.397-17.798c0.006-0.116,0.016-0.231,0.022-0.347c0.141-2.685,0.239-5.377,0.318-8.073  c0.011-0.364,0.031-0.727,0.04-1.091c0.079-3.014,0.12-6.033,0.12-9.06C711.286,347.615,711.251,344.944,711.187,342.278z"/>
<path d="M355.643,519.404c27.549,0,51.151-15.408,60.726-37.126c2.939-6.666,4.573-13.92,4.573-21.515  c0-7.766-1.705-15.177-4.771-21.967c-9.702-21.48-33.169-36.674-60.527-36.674c-27.358,0-50.825,15.195-60.527,36.675  c-3.066,6.789-4.771,14.201-4.771,21.966c0,7.594,1.633,14.848,4.573,21.515C304.493,503.996,328.094,519.404,355.643,519.404z   M298.56,441.638c9.152-20.263,32.091-33.876,57.082-33.876c24.992,0,47.931,13.613,57.082,33.877  c2.767,6.124,4.17,12.56,4.17,19.125c0,6.413-1.344,12.714-3.995,18.728c-9.039,20.5-32.049,34.273-57.257,34.273  c-25.208,0-48.217-13.773-57.255-34.273c-2.651-6.013-3.996-12.314-3.996-18.728C294.392,454.199,295.795,447.763,298.56,441.638z   M711.187,342.278c-0.059-2.611-0.152-5.216-0.272-7.816c-0.001-0.03-0.002-0.059-0.003-0.089c-0.113-2.512-0.261-5.018-0.427-7.52  c-0.019-0.288-0.034-0.578-0.054-0.866c-0.162-2.338-0.354-4.67-0.562-6.999c-0.04-0.449-0.075-0.899-0.117-1.348  c-0.207-2.223-0.442-4.441-0.692-6.656c-0.062-0.55-0.12-1.1-0.185-1.65c-0.252-2.144-0.528-4.283-0.82-6.418  c-0.083-0.612-0.165-1.223-0.252-1.834c-0.296-2.087-0.614-4.168-0.947-6.245c-0.105-0.654-0.21-1.307-0.319-1.96  c-0.34-2.042-0.698-4.08-1.074-6.113c-0.125-0.677-0.253-1.354-0.383-2.03c-0.385-2.013-0.785-4.021-1.205-6.024  c-0.143-0.684-0.292-1.367-0.44-2.05c-0.431-1.995-0.875-3.985-1.341-5.97c-0.159-0.678-0.325-1.353-0.488-2.029  c-0.479-1.988-0.97-3.973-1.484-5.95c-0.17-0.652-0.348-1.301-0.522-1.952c-0.533-1.999-1.075-3.996-1.643-5.984  c-0.17-0.596-0.351-1.189-0.525-1.784c-0.595-2.038-1.198-4.073-1.83-6.099c-0.153-0.489-0.315-0.974-0.47-1.462  c-0.675-2.128-1.359-4.253-2.075-6.367c-0.083-0.245-0.172-0.487-0.255-0.732c-1.744-5.112-3.615-10.179-5.598-15.201  c-1.808-4.581-3.708-9.125-5.714-13.626c-0.078-0.175-0.151-0.351-0.229-0.525c-0.812-1.814-1.656-3.615-2.5-5.415  c-0.333-0.71-0.655-1.426-0.993-2.134c-0.76-1.594-1.548-3.175-2.333-4.757c-0.449-0.906-0.89-1.815-1.347-2.717  c-0.745-1.47-1.515-2.929-2.282-4.389c-0.526-1.001-1.046-2.005-1.582-3.001c-0.744-1.383-1.508-2.756-2.271-4.13  c-0.591-1.063-1.179-2.126-1.781-3.183c-0.75-1.317-1.516-2.625-2.284-3.932c-0.644-1.097-1.289-2.194-1.946-3.285  c-0.762-1.266-1.538-2.525-2.317-3.783c-0.694-1.12-1.391-2.237-2.098-3.35c-0.775-1.219-1.56-2.433-2.351-3.644  c-0.742-1.136-1.491-2.269-2.247-3.397c-0.788-1.176-1.583-2.348-2.386-3.515c-0.791-1.15-1.591-2.295-2.397-3.436  c-0.8-1.134-1.604-2.265-2.419-3.391c-0.839-1.16-1.69-2.312-2.545-3.462c-0.813-1.095-1.626-2.189-2.453-3.275  c-0.89-1.17-1.795-2.331-2.701-3.491c-0.819-1.049-1.637-2.1-2.469-3.141c-0.95-1.188-1.917-2.366-2.883-3.543  c-0.82-0.999-1.635-2.001-2.466-2.992c-1.017-1.212-2.054-2.411-3.089-3.612c-0.81-0.94-1.612-1.885-2.433-2.817  c-1.111-1.262-2.245-2.508-3.376-3.756c-0.774-0.855-1.538-1.717-2.322-2.566c-1.275-1.38-2.576-2.742-3.876-4.106  c-0.667-0.7-1.321-1.409-1.994-2.104c-1.985-2.05-3.996-4.081-6.037-6.091C539.917,36.424,450.62,0,355.643,0  S171.369,36.424,104.201,102.563c-2.041,2.01-4.052,4.041-6.037,6.091c-0.673,0.695-1.327,1.404-1.994,2.104  c-1.299,1.363-2.601,2.725-3.876,4.106c-0.784,0.849-1.548,1.711-2.322,2.566c-1.131,1.248-2.265,2.494-3.376,3.756  c-0.821,0.933-1.623,1.877-2.433,2.817c-1.035,1.201-2.072,2.4-3.089,3.612c-0.832,0.991-1.647,1.993-2.466,2.992  c-0.967,1.178-1.934,2.355-2.884,3.544c-0.831,1.04-1.647,2.089-2.465,3.136c-0.908,1.163-1.815,2.326-2.707,3.499  c-0.825,1.085-1.638,2.177-2.449,3.27c-0.855,1.151-1.707,2.304-2.546,3.464c-0.814,1.126-1.619,2.257-2.419,3.391  c-0.806,1.142-1.606,2.287-2.397,3.437c-0.803,1.167-1.597,2.338-2.385,3.514c-0.757,1.13-1.507,2.264-2.25,3.401  c-0.789,1.208-1.573,2.42-2.346,3.637c-0.709,1.116-1.408,2.236-2.104,3.359c-0.778,1.255-1.552,2.512-2.313,3.775  c-0.657,1.092-1.303,2.189-1.948,3.288c-0.768,1.308-1.535,2.616-2.285,3.933c-0.602,1.056-1.189,2.119-1.78,3.181  c-0.763,1.373-1.526,2.745-2.27,4.128c-0.538,1-1.06,2.006-1.587,3.011c-0.766,1.458-1.534,2.916-2.279,4.384  c-0.457,0.901-0.897,1.81-1.346,2.715c-0.785,1.582-1.572,3.162-2.332,4.755c-0.341,0.715-0.666,1.438-1.003,2.155  c-0.841,1.795-1.682,3.589-2.491,5.397c-0.078,0.174-0.151,0.351-0.229,0.525c-2.101,4.715-4.094,9.475-5.979,14.278  c-1.885,4.803-3.661,9.648-5.327,14.533c-0.086,0.251-0.177,0.5-0.262,0.751c-0.716,2.114-1.4,4.239-2.075,6.368  c-0.154,0.487-0.316,0.971-0.468,1.458c-0.632,2.026-1.236,4.062-1.83,6.101c-0.174,0.595-0.354,1.187-0.524,1.783  c-0.569,1.989-1.111,3.986-1.644,5.986c-0.173,0.65-0.351,1.298-0.52,1.948c-0.515,1.979-1.005,3.965-1.485,5.954  c-0.163,0.675-0.329,1.349-0.487,2.025c-0.466,1.985-0.91,3.977-1.342,5.973c-0.147,0.682-0.296,1.364-0.439,2.047  c-0.42,2.004-0.821,4.013-1.206,6.027c-0.129,0.675-0.257,1.351-0.382,2.028c-0.376,2.033-0.734,4.071-1.074,6.114  c-0.109,0.653-0.214,1.306-0.319,1.96c-0.333,2.076-0.65,4.155-0.946,6.24c-0.087,0.615-0.17,1.23-0.253,1.846  c-0.291,2.133-0.567,4.27-0.819,6.412c-0.064,0.549-0.123,1.099-0.185,1.648c-0.249,2.215-0.485,4.433-0.692,6.657  c-0.042,0.448-0.077,0.898-0.117,1.346c-0.208,2.329-0.401,4.662-0.562,7.001c-0.02,0.288-0.034,0.576-0.054,0.864  c-0.167,2.502-0.314,5.009-0.427,7.521c-0.001,0.03-0.002,0.061-0.003,0.092c-0.117,2.6-0.209,5.204-0.272,7.813  C0.035,344.944,0,347.615,0,350.291c0,3.026,0.041,6.046,0.12,9.06c0.009,0.364,0.03,0.726,0.04,1.09  c0.079,2.696,0.178,5.39,0.318,8.075c0.006,0.115,0.015,0.229,0.021,0.344c0.167,3.138,0.381,6.267,0.63,9.389  c0.094,1.173,0.215,2.341,0.32,3.512c0.147,1.634,0.277,3.271,0.447,4.9c0.051,0.49,0.111,0.978,0.165,1.467  c0.051,0.473,0.106,0.944,0.159,1.417c0.33,2.927,0.691,5.847,1.095,8.757c0.044,0.318,0.093,0.634,0.138,0.952  c0.433,3.059,0.897,6.111,1.409,9.151c0.037,0.219,0.07,0.439,0.107,0.658c0.343,2.012,0.713,4.016,1.091,6.019  c0.113,0.598,0.222,1.196,0.338,1.793c0.365,1.881,0.751,3.757,1.147,5.63c0.148,0.697,0.296,1.394,0.448,2.091  c0.4,1.835,0.814,3.666,1.244,5.492c0.164,0.698,0.334,1.394,0.503,2.09c0.447,1.849,0.902,3.695,1.38,5.534  c0.148,0.571,0.306,1.14,0.457,1.711c0.947,3.571,1.964,7.119,3.025,10.653c1.485,4.947,3.067,9.862,4.772,14.732  c0.253,0.722,0.498,1.445,0.756,2.165c0.577,1.613,1.174,3.217,1.775,4.821c0.33,0.882,0.66,1.764,0.997,2.644  c0.588,1.531,1.189,3.056,1.799,4.579c0.376,0.938,0.756,1.874,1.141,2.809c0.61,1.484,1.226,2.965,1.857,4.441  c0.41,0.96,0.831,1.915,1.25,2.871c0.637,1.454,1.275,2.908,1.932,4.354c0.43,0.945,0.875,1.883,1.314,2.824  c0.677,1.454,1.349,2.91,2.046,4.355c0.269,0.558,0.553,1.109,0.826,1.666c1.442,2.944,2.931,5.866,4.458,8.771  c0.57,1.085,1.133,2.173,1.715,3.252c0.658,1.22,1.337,2.43,2.01,3.643c0.631,1.136,1.26,2.272,1.903,3.402  c0.67,1.175,1.353,2.344,2.037,3.512c0.68,1.161,1.364,2.32,2.058,3.474c0.681,1.133,1.37,2.262,2.065,3.388  c0.734,1.189,1.478,2.373,2.227,3.554c0.683,1.077,1.367,2.155,2.062,3.225c0.814,1.253,1.644,2.497,2.474,3.741  c0.66,0.989,1.314,1.981,1.985,2.963c1.012,1.482,2.046,2.95,3.082,4.418c0.515,0.73,1.018,1.467,1.539,2.193  c1.54,2.147,3.108,4.278,4.7,6.394c0.558,0.742,1.133,1.473,1.697,2.211c1.09,1.426,2.183,2.85,3.297,4.262  c0.673,0.853,1.36,1.697,2.041,2.544c1.036,1.289,2.077,2.574,3.133,3.851c0.718,0.868,1.445,1.731,2.173,2.593  c1.054,1.25,2.117,2.493,3.191,3.73c0.736,0.848,1.474,1.694,2.219,2.536c1.116,1.262,2.245,2.514,3.381,3.762  c0.719,0.791,1.435,1.583,2.163,2.368c1.256,1.356,2.532,2.699,3.812,4.038c0.627,0.656,1.245,1.318,1.878,1.971  c1.921,1.98,3.863,3.945,5.836,5.888c67.168,66.138,156.465,102.563,251.442,102.563s184.274-36.424,251.442-102.563  c1.973-1.943,3.915-3.908,5.836-5.888c0.633-0.652,1.251-1.315,1.878-1.971c1.28-1.34,2.556-2.682,3.812-4.038  c0.727-0.785,1.443-1.578,2.163-2.368c1.136-1.248,2.265-2.5,3.381-3.762c0.745-0.842,1.483-1.688,2.219-2.536  c1.073-1.237,2.136-2.481,3.191-3.73c0.728-0.862,1.454-1.725,2.173-2.593c1.057-1.277,2.098-2.564,3.135-3.853  c0.68-0.846,1.365-1.688,2.037-2.539c1.117-1.416,2.214-2.845,3.307-4.275c0.561-0.734,1.133-1.461,1.687-2.198  c1.592-2.117,3.161-4.249,4.701-6.396c0.522-0.727,1.025-1.465,1.541-2.196c1.035-1.467,2.069-2.934,3.08-4.414  c0.673-0.986,1.329-1.98,1.991-2.972c0.828-1.24,1.656-2.48,2.467-3.73c0.697-1.073,1.382-2.153,2.067-3.233  c0.748-1.179,1.49-2.361,2.223-3.548c0.696-1.127,1.385-2.258,2.067-3.392c0.693-1.153,1.377-2.311,2.057-3.471  c0.684-1.168,1.367-2.336,2.037-3.511c0.644-1.131,1.274-2.269,1.905-3.406c0.673-1.212,1.351-2.422,2.009-3.642  c0.58-1.075,1.14-2.158,1.708-3.238c1.541-2.93,3.042-5.878,4.496-8.848c0.261-0.534,0.534-1.063,0.793-1.599  c0.698-1.444,1.369-2.901,2.046-4.354c0.439-0.942,0.885-1.881,1.316-2.828c0.657-1.445,1.294-2.898,1.931-4.352  c0.419-0.956,0.84-1.911,1.25-2.871c0.63-1.474,1.246-2.954,1.855-4.436c0.385-0.938,0.767-1.876,1.144-2.817  c0.61-1.522,1.211-3.047,1.798-4.578c0.337-0.876,0.665-1.756,0.994-2.635c0.602-1.607,1.2-3.215,1.778-4.83  c0.256-0.717,0.501-1.438,0.753-2.157c1.462-4.177,2.844-8.383,4.144-12.617c1.301-4.234,2.52-8.495,3.656-12.782  c0.15-0.567,0.307-1.132,0.454-1.701c0.478-1.842,0.934-3.69,1.382-5.541c0.168-0.694,0.337-1.387,0.501-2.082  c0.43-1.826,0.844-3.658,1.244-5.493c0.152-0.698,0.301-1.397,0.45-2.096c0.396-1.871,0.781-3.744,1.146-5.623  c0.117-0.6,0.226-1.202,0.34-1.803c0.378-2,0.747-4.002,1.09-6.011c0.038-0.221,0.071-0.444,0.108-0.665  c0.303-1.798,0.592-3.599,0.868-5.404c0.826-5.414,1.527-10.859,2.096-16.333c0,0,0,0,0-0.001v0  c0.614-5.903,1.083-11.836,1.397-17.798c0.006-0.116,0.016-0.231,0.022-0.347c0.141-2.685,0.239-5.377,0.318-8.073  c0.011-0.364,0.031-0.727,0.04-1.091c0.079-3.014,0.12-6.033,0.12-9.06C711.286,347.615,711.251,344.944,711.187,342.278z   M694.745,407.892c-0.094,0.538-0.176,1.08-0.273,1.617c-0.308,1.714-0.648,3.418-0.982,5.123c-0.185,0.946-0.36,1.895-0.554,2.837  c-0.328,1.598-0.682,3.187-1.032,4.777c-0.23,1.041-0.452,2.083-0.692,3.12c-0.356,1.542-0.733,3.077-1.11,4.611  c-0.263,1.07-0.523,2.141-0.797,3.207c-0.387,1.511-0.792,3.015-1.2,4.517c-0.292,1.077-0.586,2.153-0.889,3.225  c-0.42,1.487-0.853,2.97-1.293,4.449c-0.32,1.075-0.644,2.147-0.974,3.218c-0.454,1.47-0.916,2.935-1.389,4.396  c-0.344,1.063-0.697,2.123-1.051,3.181c-0.489,1.459-0.983,2.917-1.491,4.367c-0.365,1.042-0.741,2.078-1.117,3.115  c-0.527,1.456-1.055,2.911-1.601,4.358c-0.38,1.006-0.774,2.006-1.164,3.008c-0.57,1.466-1.138,2.933-1.728,4.389  c-0.38,0.939-0.778,1.87-1.166,2.805c-0.626,1.505-1.247,3.013-1.895,4.508c-0.325,0.751-0.667,1.493-0.997,2.241  c-2.452,5.55-5.051,11.022-7.792,16.414c-0.393,0.774-0.776,1.554-1.175,2.325c-0.726,1.402-1.477,2.789-2.222,4.18  c-0.499,0.93-0.99,1.864-1.497,2.789c-0.727,1.327-1.474,2.641-2.219,3.957c-0.552,0.975-1.099,1.952-1.661,2.921  c-0.741,1.279-1.498,2.549-2.255,3.818c-0.589,0.986-1.177,1.973-1.776,2.953c-0.763,1.249-1.537,2.489-2.316,3.727  c-0.619,0.985-1.241,1.968-1.87,2.946c-0.784,1.219-1.576,2.431-2.375,3.64c-0.649,0.981-1.303,1.958-1.962,2.932  c-0.806,1.192-1.617,2.38-2.438,3.56c-0.676,0.973-1.361,1.939-2.047,2.905c-0.83,1.168-1.662,2.334-2.507,3.492  c-0.699,0.957-1.408,1.906-2.117,2.855c-0.857,1.149-1.713,2.298-2.584,3.436c-0.717,0.937-1.448,1.863-2.175,2.792  c-0.887,1.133-1.769,2.27-2.67,3.392c-0.73,0.909-1.476,1.805-2.215,2.706c-0.92,1.122-1.834,2.251-2.768,3.361  c-0.711,0.845-1.44,1.675-2.159,2.513c-1.878,2.189-3.784,4.354-5.718,6.496c-0.761,0.843-1.512,1.695-2.281,2.53  c-0.933,1.013-1.886,2.008-2.832,3.01c-0.856,0.908-1.706,1.821-2.572,2.72c-0.943,0.978-1.904,1.941-2.859,2.908  c-0.891,0.902-1.777,1.808-2.678,2.7c-0.958,0.949-1.929,1.884-2.898,2.822c-0.92,0.89-1.839,1.782-2.769,2.662  c-0.974,0.921-1.958,1.832-2.942,2.742c-0.947,0.876-1.896,1.75-2.853,2.615c-0.989,0.894-1.986,1.78-2.986,2.663  c-0.975,0.861-1.954,1.718-2.939,2.568c-1.002,0.865-2.009,1.724-3.021,2.578c-1.005,0.848-2.017,1.689-3.032,2.525  c-1.012,0.834-2.027,1.666-3.049,2.489c-1.04,0.837-2.089,1.665-3.139,2.49c-1.018,0.8-2.035,1.6-3.061,2.389  c-1.079,0.829-2.169,1.645-3.259,2.461c-1.019,0.764-2.035,1.531-3.062,2.283c-1.134,0.831-2.281,1.645-3.426,2.462  c-1,0.714-1.995,1.435-3.003,2.139c-1.253,0.874-2.522,1.728-3.787,2.586c-0.919,0.623-1.83,1.258-2.755,1.872  c-2.154,1.431-4.324,2.84-6.512,4.224c-0.761,0.482-1.536,0.944-2.301,1.42c-1.486,0.924-2.971,1.849-4.472,2.751  c-0.965,0.58-1.943,1.141-2.915,1.711c-1.318,0.775-2.634,1.552-3.964,2.31c-1.033,0.589-2.077,1.16-3.117,1.739  c-1.285,0.714-2.568,1.43-3.863,2.128c-1.071,0.578-2.15,1.142-3.228,1.708c-1.282,0.674-2.565,1.347-3.857,2.006  c-1.095,0.558-2.196,1.105-3.297,1.652c-1.293,0.642-2.589,1.28-3.891,1.906c-1.11,0.534-2.224,1.06-3.34,1.583  c-1.313,0.614-2.629,1.221-3.951,1.819c-1.12,0.507-2.242,1.01-3.368,1.505c-1.339,0.589-2.683,1.166-4.03,1.739  c-1.121,0.476-2.241,0.951-3.368,1.416c-1.379,0.569-2.766,1.123-4.155,1.674c-1.109,0.441-2.217,0.884-3.331,1.314  c-1.441,0.555-2.892,1.092-4.343,1.628c-1.073,0.397-2.143,0.801-3.221,1.188c-1.562,0.56-3.135,1.097-4.708,1.635  c-0.981,0.336-1.957,0.683-2.942,1.01c-1.925,0.64-3.864,1.252-5.804,1.859c-0.643,0.201-1.28,0.415-1.925,0.613  c-2.579,0.79-5.171,1.55-7.776,2.282c-0.775,0.218-1.558,0.417-2.335,0.629c-1.848,0.505-3.697,1.008-5.557,1.484  c-1.021,0.261-2.049,0.502-3.073,0.754c-1.628,0.4-3.256,0.801-4.893,1.178c-1.114,0.257-2.234,0.496-3.352,0.742  c-1.56,0.343-3.121,0.685-4.69,1.008c-1.163,0.239-2.332,0.464-3.499,0.691c-1.537,0.299-3.075,0.595-4.619,0.873  c-1.192,0.215-2.387,0.42-3.583,0.623c-1.533,0.26-3.068,0.513-4.607,0.754c-1.21,0.189-2.422,0.371-3.636,0.547  c-1.541,0.224-3.086,0.437-4.634,0.64c-1.215,0.16-2.431,0.317-3.65,0.464c-1.567,0.189-3.139,0.363-4.712,0.532  c-1.206,0.129-2.412,0.259-3.622,0.376c-1.612,0.156-3.23,0.291-4.848,0.425c-1.178,0.097-2.355,0.2-3.537,0.286  c-1.694,0.122-3.395,0.221-5.096,0.319c-1.113,0.064-2.224,0.139-3.34,0.193c-1.885,0.091-3.777,0.152-5.669,0.213  c-0.94,0.03-1.876,0.075-2.817,0.097c-2.836,0.068-5.68,0.107-8.533,0.107s-5.697-0.038-8.533-0.107  c-0.941-0.023-1.877-0.067-2.817-0.097c-1.893-0.061-3.785-0.122-5.67-0.213c-1.116-0.054-2.226-0.128-3.34-0.193  c-1.701-0.098-3.402-0.196-5.097-0.319c-1.182-0.085-2.359-0.188-3.537-0.286c-1.618-0.134-3.236-0.269-4.848-0.425  c-1.21-0.117-2.415-0.247-3.621-0.376c-1.574-0.168-3.146-0.343-4.714-0.532c-1.218-0.147-2.434-0.304-3.648-0.464  c-1.549-0.204-3.094-0.417-4.636-0.641c-1.213-0.176-2.425-0.358-3.634-0.547c-1.54-0.24-3.076-0.493-4.609-0.754  c-1.196-0.203-2.39-0.408-3.582-0.623c-1.543-0.279-3.08-0.574-4.616-0.873c-1.17-0.228-2.341-0.453-3.506-0.693  c-1.565-0.322-3.123-0.663-4.68-1.006c-1.12-0.246-2.242-0.486-3.358-0.743c-1.634-0.377-3.259-0.777-4.885-1.176  c-1.028-0.253-2.06-0.495-3.084-0.756c-1.859-0.475-3.706-0.978-5.552-1.483c-0.777-0.213-1.561-0.411-2.336-0.629  c-2.605-0.732-5.198-1.492-7.778-2.283c-0.639-0.196-1.271-0.408-1.908-0.608c-1.946-0.609-3.89-1.223-5.821-1.864  c-0.982-0.326-1.955-0.672-2.934-1.007c-1.575-0.539-3.152-1.077-4.716-1.639c-1.076-0.386-2.143-0.789-3.214-1.185  c-1.453-0.537-2.906-1.075-4.349-1.631c-1.115-0.43-2.223-0.873-3.333-1.314c-1.387-0.551-2.772-1.104-4.15-1.672  c-1.128-0.465-2.251-0.941-3.373-1.418c-1.346-0.572-2.69-1.149-4.027-1.737c-1.128-0.496-2.251-0.999-3.372-1.507  c-1.319-0.597-2.634-1.203-3.945-1.816c-1.119-0.523-2.235-1.051-3.347-1.586c-1.3-0.625-2.593-1.262-3.884-1.903  c-1.103-0.548-2.207-1.096-3.303-1.656c-1.29-0.658-2.572-1.33-3.852-2.004c-1.079-0.567-2.159-1.131-3.231-1.71  c-1.294-0.698-2.577-1.413-3.861-2.128c-1.041-0.579-2.086-1.151-3.12-1.74c-1.326-0.756-2.639-1.531-3.955-2.304  c-0.975-0.572-1.956-1.135-2.924-1.717c-1.511-0.907-3.005-1.839-4.5-2.768c-0.755-0.469-1.518-0.925-2.269-1.4  c-2.19-1.385-4.361-2.795-6.517-4.227c-0.925-0.614-1.835-1.248-2.753-1.871c-1.265-0.858-2.534-1.712-3.787-2.587  c-1.008-0.704-2.003-1.424-3.003-2.138c-1.146-0.818-2.294-1.632-3.429-2.464c-1.027-0.752-2.042-1.519-3.061-2.282  c-1.089-0.816-2.18-1.632-3.259-2.461c-1.026-0.788-2.043-1.588-3.06-2.387c-1.052-0.827-2.102-1.655-3.144-2.494  c-1.02-0.821-2.033-1.651-3.043-2.484c-1.018-0.838-2.031-1.681-3.039-2.53c-1.01-0.852-2.015-1.71-3.015-2.573  c-0.987-0.852-1.968-1.71-2.945-2.573c-0.999-0.882-1.995-1.768-2.984-2.661c-0.957-0.865-1.905-1.739-2.852-2.614  c-0.985-0.911-1.97-1.821-2.944-2.743c-0.931-0.881-1.85-1.773-2.771-2.664c-0.968-0.936-1.937-1.87-2.894-2.818  c-0.903-0.895-1.793-1.803-2.686-2.708c-0.953-0.965-1.911-1.926-2.853-2.902c-0.867-0.899-1.717-1.814-2.574-2.722  c-0.945-1.001-1.897-1.995-2.829-3.008c-0.781-0.848-1.544-1.713-2.316-2.569c-1.906-2.112-3.786-4.248-5.639-6.407  c-0.735-0.856-1.479-1.704-2.205-2.567c-0.928-1.103-1.835-2.223-2.749-3.338c-0.746-0.909-1.498-1.813-2.235-2.73  c-0.898-1.118-1.777-2.251-2.661-3.38c-0.73-0.932-1.463-1.861-2.183-2.801c-0.868-1.134-1.721-2.28-2.576-3.425  c-0.712-0.955-1.425-1.908-2.128-2.87c-0.842-1.154-1.671-2.316-2.499-3.481c-0.688-0.968-1.375-1.938-2.053-2.913  c-0.819-1.179-1.629-2.365-2.434-3.554c-0.661-0.977-1.317-1.957-1.968-2.941c-0.796-1.204-1.586-2.413-2.367-3.627  c-0.632-0.983-1.258-1.972-1.88-2.962c-0.776-1.235-1.549-2.472-2.309-3.717c-0.599-0.981-1.188-1.969-1.778-2.957  c-0.757-1.268-1.513-2.537-2.254-3.815c-0.562-0.971-1.111-1.95-1.664-2.927c-0.743-1.313-1.489-2.625-2.214-3.948  c-0.51-0.93-1.004-1.87-1.506-2.805c-0.743-1.386-1.49-2.768-2.214-4.165c-0.403-0.777-0.788-1.563-1.185-2.344  c-2.732-5.376-5.324-10.832-7.769-16.366c-0.335-0.759-0.682-1.512-1.012-2.273c-0.645-1.489-1.264-2.991-1.888-4.491  c-0.391-0.941-0.791-1.878-1.174-2.823c-0.588-1.452-1.154-2.914-1.723-4.376c-0.391-1.007-0.787-2.011-1.169-3.022  c-0.545-1.443-1.072-2.896-1.597-4.348c-0.376-1.04-0.754-2.08-1.12-3.125c-0.507-1.447-1-2.901-1.488-4.357  c-0.356-1.063-0.71-2.127-1.056-3.194c-0.472-1.457-0.933-2.919-1.385-4.385c-0.331-1.074-0.657-2.151-0.978-3.23  c-0.439-1.475-0.87-2.953-1.289-4.436c-0.305-1.078-0.599-2.16-0.893-3.242c-0.406-1.497-0.809-2.995-1.195-4.5  c-0.275-1.071-0.537-2.148-0.801-3.223c-0.376-1.53-0.752-3.061-1.107-4.6c-0.24-1.04-0.463-2.085-0.693-3.128  c-0.35-1.586-0.703-3.171-1.03-4.765c-0.196-0.955-0.373-1.916-0.561-2.873c-0.332-1.693-0.669-3.385-0.975-5.087  c-0.101-0.563-0.188-1.131-0.286-1.696c-0.8-4.586-1.521-9.198-2.131-13.845c-0.001-0.009-0.003-0.018-0.004-0.027  c16.358,9.289,33.056,17.95,50.099,25.933c3.76,1.761,7.531,3.482,11.31,5.172c1.349,0.603,2.705,1.183,4.056,1.777  c2.422,1.065,4.844,2.13,7.274,3.166c1.678,0.716,3.362,1.408,5.044,2.11c2.096,0.874,4.192,1.75,6.294,2.603  c1.876,0.761,3.757,1.503,5.637,2.247c1.894,0.749,3.789,1.498,5.688,2.229c2.042,0.788,4.089,1.559,6.136,2.326  c1.718,0.644,3.438,1.283,5.159,1.913c2.207,0.807,4.418,1.602,6.631,2.386c1.527,0.541,3.056,1.074,4.586,1.603  c2.398,0.83,4.798,1.651,7.202,2.454c1.28,0.427,2.563,0.845,3.845,1.264c2.649,0.867,5.301,1.727,7.958,2.561  c0.9,0.282,1.803,0.555,2.704,0.833c3.031,0.938,6.065,1.865,9.106,2.76c0.16,0.047,0.321,0.092,0.482,0.139  c25.951,7.613,52.253,13.644,78.852,18.101c0,0,0,0,0,0c0.337,2.199,0.722,4.395,1.207,6.576c0.649,2.914,1.408,5.752,2.257,8.436  c14.147,44.698,59.266,75.916,109.721,75.916c50.456,0,95.576-31.217,109.722-75.916c0.849-2.683,1.608-5.522,2.257-8.436  c0.485-2.181,0.87-4.376,1.207-6.576c0.001,0,0.003-0.001,0.004-0.001c26.593-4.457,52.891-10.486,78.836-18.097  c0.165-0.048,0.331-0.094,0.496-0.143c3.037-0.893,6.066-1.819,9.093-2.756c0.906-0.28,1.814-0.554,2.719-0.838  c2.656-0.834,5.307-1.693,7.955-2.56c1.28-0.419,2.56-0.836,3.838-1.262c2.407-0.804,4.81-1.625,7.211-2.457  c1.529-0.529,3.056-1.062,4.582-1.602c2.213-0.784,4.423-1.578,6.63-2.385c1.722-0.629,3.441-1.269,5.159-1.913  c2.048-0.767,4.094-1.539,6.137-2.326c1.899-0.732,3.793-1.48,5.687-2.229c1.88-0.744,3.761-1.485,5.637-2.247  c2.102-0.853,4.198-1.728,6.294-2.603c1.682-0.702,3.366-1.394,5.044-2.11c2.43-1.036,4.852-2.101,7.274-3.166  c1.352-0.594,2.707-1.174,4.056-1.777c3.779-1.69,7.55-3.411,11.31-5.172c17.043-7.983,33.74-16.644,50.098-25.933  C696.278,398.627,695.552,403.273,694.745,407.892z M274.484,460.763c0-8.309,1.585-16.283,4.466-23.717  c11.001-28.39,41.172-48.785,76.693-48.785c35.522,0,65.693,20.395,76.693,48.785c2.88,7.434,4.466,15.408,4.466,23.717  c0,6.853-1.087,13.474-3.076,19.758c-9.632,30.435-40.931,52.744-78.083,52.744s-68.451-22.309-78.083-52.744  C275.571,474.238,274.484,467.616,274.484,460.763z M692.696,345.881c-0.786,0.479-1.577,0.948-2.364,1.424  c-1.54,0.93-3.08,1.861-4.626,2.779c-0.937,0.556-1.879,1.102-2.818,1.653c-1.403,0.824-2.806,1.648-4.215,2.462  c-1.012,0.584-2.028,1.159-3.042,1.738c-1.344,0.767-2.689,1.534-4.038,2.292c-1.053,0.591-2.11,1.175-3.166,1.76  c-1.32,0.732-2.64,1.462-3.964,2.185c-1.081,0.59-2.165,1.173-3.249,1.757c-1.307,0.704-2.615,1.406-3.927,2.101  c-1.102,0.584-2.206,1.163-3.311,1.741c-1.3,0.68-2.602,1.357-3.907,2.028c-1.12,0.576-2.242,1.149-3.365,1.719  c-1.298,0.658-2.597,1.312-3.899,1.962c-1.135,0.567-2.272,1.132-3.411,1.692c-1.295,0.637-2.593,1.269-3.893,1.898  c-1.15,0.557-2.301,1.113-3.455,1.663c-1.297,0.618-2.596,1.229-3.897,1.839c-1.162,0.545-2.323,1.09-3.488,1.628  c-1.305,0.603-2.614,1.197-3.923,1.791c-1.164,0.528-2.326,1.059-3.493,1.58c-1.319,0.589-2.642,1.169-3.965,1.749  c-1.166,0.512-2.331,1.028-3.5,1.534c-1.345,0.581-2.694,1.15-4.043,1.723c-1.15,0.488-2.297,0.981-3.45,1.463  c-1.434,0.599-2.874,1.184-4.312,1.772c-1.074,0.44-2.145,0.887-3.222,1.32c-2.39,0.963-4.787,1.912-7.189,2.847  c-1.227,0.478-2.459,0.942-3.689,1.412c-1.369,0.523-2.736,1.052-4.108,1.566c-1.262,0.473-2.529,0.932-3.795,1.397  c-1.278,0.47-2.554,0.944-3.835,1.405c-1.308,0.472-2.622,0.931-3.933,1.394c-1.243,0.439-2.485,0.881-3.731,1.312  c-1.336,0.463-2.677,0.915-4.016,1.369c-1.229,0.417-2.457,0.835-3.689,1.244c-1.353,0.449-2.709,0.89-4.065,1.33  c-1.225,0.398-2.449,0.796-3.676,1.186c-1.368,0.435-2.739,0.863-4.111,1.29c-1.219,0.379-2.438,0.756-3.659,1.128  c-1.384,0.421-2.771,0.837-4.158,1.249c-1.217,0.362-2.435,0.72-3.655,1.074c-1.395,0.405-2.791,0.806-4.19,1.202  c-1.214,0.344-2.43,0.683-3.647,1.02c-1.411,0.391-2.823,0.778-4.237,1.159c-1.208,0.326-2.419,0.645-3.629,0.964  c-1.428,0.376-2.856,0.75-4.287,1.116c-1.197,0.306-2.397,0.605-3.597,0.905c-1.45,0.362-2.901,0.724-4.354,1.076  c-1.177,0.285-2.357,0.561-3.536,0.839c-1.481,0.35-2.962,0.701-4.446,1.041c-1.148,0.262-2.3,0.514-3.45,0.771  c-1.519,0.338-3.037,0.68-4.559,1.007c-1.078,0.232-2.159,0.452-3.239,0.678c-1.603,0.336-3.205,0.676-4.812,1  c-0.788,0.159-1.579,0.307-2.367,0.463c-4.454,0.88-8.919,1.723-13.401,2.51c-0.277-0.911-0.552-1.823-0.856-2.728  c-0.484-1.44-1.007-2.888-1.557-4.307c-16.22-41.857-59.476-69.979-107.637-69.979s-91.418,28.123-107.638,69.983  c-0.547,1.413-1.071,2.861-1.555,4.302c-0.304,0.906-0.579,1.818-0.857,2.73c-0.01-0.002-0.021-0.004-0.031-0.006  c-4.465-0.784-8.914-1.624-13.352-2.5c-0.795-0.157-1.593-0.307-2.388-0.467c-1.609-0.324-3.213-0.665-4.818-1.002  c-1.075-0.225-2.153-0.445-3.227-0.676c-1.529-0.329-3.053-0.672-4.578-1.012c-1.144-0.255-2.288-0.505-3.43-0.766  c-1.491-0.341-2.978-0.694-4.465-1.045c-1.172-0.277-2.345-0.551-3.514-0.834c-1.46-0.354-2.917-0.718-4.374-1.081  c-1.193-0.298-2.387-0.595-3.578-0.9c-1.436-0.367-2.869-0.743-4.301-1.12c-1.206-0.317-2.411-0.636-3.614-0.96  c-1.419-0.382-2.836-0.772-4.252-1.164c-1.211-0.335-2.42-0.673-3.628-1.015c-1.404-0.398-2.806-0.8-4.207-1.207  c-1.217-0.354-2.432-0.711-3.646-1.072c-1.388-0.412-2.774-0.828-4.159-1.249c-1.22-0.371-2.438-0.748-3.655-1.127  c-1.374-0.427-2.749-0.856-4.12-1.293c-1.224-0.39-2.445-0.786-3.665-1.183c-1.36-0.442-2.72-0.883-4.076-1.334  c-1.228-0.408-2.452-0.825-3.677-1.24c-1.342-0.455-2.684-0.907-4.022-1.371c-1.243-0.43-2.482-0.871-3.721-1.309  c-1.318-0.465-2.637-0.927-3.951-1.401c-1.266-0.457-2.528-0.925-3.791-1.389c-1.278-0.47-2.559-0.934-3.834-1.411  c-1.358-0.509-2.711-1.032-4.065-1.55c-1.353-0.517-2.708-1.031-4.058-1.558c-2.287-0.892-4.57-1.794-6.846-2.711  c-1.124-0.453-2.242-0.919-3.363-1.379c-1.394-0.571-2.789-1.137-4.179-1.717c-1.159-0.484-2.313-0.98-3.469-1.471  c-1.345-0.571-2.691-1.139-4.033-1.718c-1.17-0.506-2.335-1.022-3.502-1.535c-1.319-0.579-2.639-1.157-3.955-1.745  c-1.171-0.523-2.337-1.056-3.505-1.586c-1.307-0.593-2.614-1.186-3.916-1.788c-1.166-0.538-2.327-1.084-3.49-1.629  c-1.3-0.61-2.599-1.22-3.895-1.838c-1.154-0.551-2.306-1.107-3.457-1.664c-1.297-0.628-2.592-1.258-3.885-1.894  c-1.145-0.564-2.289-1.132-3.431-1.702c-1.293-0.646-2.584-1.295-3.873-1.949c-1.131-0.574-2.261-1.151-3.389-1.731  c-1.297-0.667-2.592-1.34-3.885-2.016c-1.111-0.581-2.221-1.163-3.329-1.75c-1.307-0.693-2.61-1.392-3.912-2.093  c-1.088-0.586-2.177-1.172-3.262-1.764c-1.322-0.721-2.639-1.451-3.957-2.181c-1.056-0.585-2.113-1.169-3.166-1.76  c-1.353-0.76-2.701-1.529-4.05-2.298c-1.011-0.577-2.024-1.15-3.033-1.732c-1.408-0.813-2.81-1.637-4.213-2.46  c-0.94-0.552-1.884-1.099-2.821-1.655c-1.547-0.918-3.086-1.849-4.626-2.779c-0.788-0.476-1.579-0.945-2.364-1.424  c-2.319-1.414-4.632-2.841-6.935-4.283c0.027-1.059,0.085-2.111,0.122-3.168c0.064-1.814,0.118-3.631,0.211-5.437  c0.066-1.29,0.165-2.572,0.246-3.858c0.099-1.566,0.183-3.136,0.303-4.697c0.103-1.332,0.238-2.655,0.356-3.983  c0.134-1.505,0.254-3.013,0.408-4.512c0.139-1.348,0.309-2.687,0.463-4.03c0.169-1.469,0.325-2.942,0.513-4.405  c0.173-1.349,0.377-2.689,0.567-4.033c0.204-1.447,0.396-2.898,0.619-4.34c0.208-1.349,0.446-2.687,0.671-4.031  c0.238-1.425,0.465-2.854,0.721-4.273c0.244-1.349,0.516-2.688,0.775-4.031c0.271-1.402,0.532-2.808,0.82-4.204  c0.278-1.343,0.583-2.677,0.877-4.014c0.304-1.385,0.599-2.773,0.921-4.152c0.31-1.33,0.647-2.65,0.973-3.975  c0.339-1.374,0.668-2.752,1.024-4.12c0.343-1.32,0.711-2.63,1.07-3.944c0.371-1.357,0.733-2.718,1.121-4.069  c0.376-1.312,0.777-2.614,1.169-3.92c0.403-1.34,0.798-2.684,1.217-4.018c0.409-1.3,0.84-2.591,1.264-3.885  c0.434-1.324,0.862-2.652,1.312-3.969c0.44-1.289,0.903-2.568,1.358-3.849c0.465-1.309,0.925-2.62,1.406-3.921  c0.472-1.276,0.965-2.543,1.452-3.812c0.496-1.292,0.986-2.586,1.497-3.87c0.502-1.262,1.025-2.514,1.542-3.769  c0.527-1.278,1.049-2.557,1.591-3.827c0.532-1.246,1.083-2.482,1.629-3.721c0.557-1.262,1.111-2.526,1.683-3.781  c0.562-1.232,1.142-2.454,1.718-3.678c0.586-1.245,1.17-2.491,1.771-3.728c0.591-1.216,1.199-2.423,1.805-3.631  c0.616-1.229,1.23-2.46,1.861-3.681c0.619-1.199,1.254-2.388,1.888-3.579c0.645-1.213,1.289-2.426,1.948-3.63  c0.647-1.181,1.309-2.353,1.969-3.525c0.675-1.198,1.35-2.397,2.039-3.586c0.674-1.163,1.362-2.316,2.049-3.47  c0.702-1.179,1.404-2.357,2.12-3.527c0.703-1.149,1.42-2.288,2.137-3.428c0.729-1.159,1.459-2.319,2.202-3.469  c0.728-1.128,1.469-2.247,2.211-3.366c0.758-1.143,1.517-2.285,2.288-3.419c0.754-1.109,1.52-2.209,2.287-3.308  c0.785-1.125,1.573-2.249,2.372-3.365c0.779-1.088,1.569-2.168,2.361-3.247c0.812-1.106,1.627-2.211,2.452-3.307  c0.806-1.07,1.622-2.133,2.44-3.194c0.836-1.084,1.676-2.166,2.525-3.24c0.832-1.052,1.673-2.096,2.517-3.138  c0.862-1.064,1.727-2.125,2.601-3.178c0.856-1.031,1.72-2.055,2.588-3.076c0.887-1.043,1.778-2.083,2.677-3.116  c0.88-1.011,1.769-2.015,2.661-3.015c0.912-1.022,1.828-2.04,2.751-3.052c0.903-0.988,1.813-1.97,2.727-2.948  c0.937-1.002,1.878-1.999,2.827-2.989c0.926-0.967,1.859-1.928,2.796-2.884c0.96-0.98,1.926-1.954,2.898-2.922  c0.948-0.944,1.903-1.883,2.862-2.817c0.984-0.957,1.974-1.909,2.969-2.854c0.971-0.923,1.948-1.84,2.93-2.752  c1.006-0.934,2.018-1.861,3.036-2.782c0.993-0.899,1.99-1.794,2.994-2.683c1.03-0.912,2.067-1.817,3.109-2.716  c1.012-0.874,2.027-1.744,3.05-2.607c1.055-0.891,2.118-1.773,3.184-2.651c1.03-0.848,2.063-1.693,3.104-2.53  c1.077-0.866,2.162-1.724,3.25-2.578c1.052-0.826,2.107-1.648,3.17-2.462c1.096-0.84,2.2-1.67,3.307-2.497  c1.073-0.802,2.148-1.601,3.231-2.391c1.119-0.816,2.246-1.622,3.375-2.425c1.09-0.775,2.182-1.548,3.282-2.311  c1.141-0.792,2.29-1.572,3.441-2.35c1.108-0.749,2.216-1.496,3.333-2.232c1.162-0.766,2.333-1.521,3.505-2.273  c1.126-0.723,2.252-1.445,3.387-2.155c1.181-0.739,2.37-1.465,3.561-2.19c1.145-0.698,2.291-1.395,3.445-2.08  c1.2-0.712,2.409-1.41,3.618-2.108c1.161-0.67,2.321-1.34,3.491-1.997c1.223-0.687,2.455-1.359,3.687-2.031  c1.174-0.641,2.348-1.283,3.531-1.911c1.242-0.659,2.494-1.303,3.746-1.948c1.191-0.614,2.381-1.229,3.58-1.829  c1.261-0.631,2.532-1.246,3.802-1.863c1.205-0.585,2.408-1.172,3.621-1.743c1.281-0.603,2.571-1.189,3.86-1.777  c1.22-0.556,2.439-1.116,3.667-1.659c1.297-0.573,2.605-1.129,3.91-1.687c1.235-0.528,2.468-1.06,3.711-1.574  c1.316-0.544,2.642-1.07,3.966-1.598c1.247-0.498,2.491-1,3.746-1.484c1.339-0.516,2.688-1.012,4.034-1.513  c1.255-0.466,2.507-0.938,3.768-1.389c1.357-0.486,2.725-0.951,4.09-1.421c1.268-0.436,2.533-0.879,3.807-1.301  c1.373-0.455,2.757-0.887,4.137-1.325c1.279-0.406,2.555-0.819,3.84-1.21c1.394-0.424,2.799-0.826,4.2-1.233  c1.286-0.374,2.569-0.755,3.861-1.115c1.417-0.394,2.844-0.763,4.268-1.139c1.291-0.341,2.577-0.691,3.874-1.018  c1.435-0.361,2.881-0.697,4.323-1.041c1.299-0.31,2.594-0.629,3.899-0.924c1.459-0.33,2.927-0.632,4.393-0.944  c1.299-0.276,2.595-0.563,3.899-0.825c1.483-0.297,2.976-0.566,4.466-0.845c1.301-0.243,2.598-0.498,3.905-0.727  c1.502-0.263,3.014-0.496,4.523-0.74c1.305-0.211,2.606-0.434,3.916-0.63c1.531-0.229,3.071-0.428,4.609-0.637  c1.298-0.177,2.592-0.367,3.896-0.53c1.57-0.196,3.15-0.359,4.727-0.534c1.281-0.142,2.557-0.299,3.841-0.427  c1.631-0.162,3.272-0.291,4.909-0.431c1.24-0.106,2.475-0.228,3.719-0.321c1.726-0.129,3.462-0.222,5.195-0.325  c1.166-0.07,2.327-0.157,3.496-0.215c1.937-0.096,3.883-0.154,5.828-0.219c0.973-0.032,1.941-0.084,2.916-0.108  c2.925-0.073,5.858-0.11,8.8-0.11s5.876,0.037,8.8,0.11c0.975,0.024,1.943,0.076,2.916,0.108c1.945,0.064,3.891,0.122,5.828,0.219  c1.169,0.058,2.33,0.146,3.496,0.215c1.733,0.103,3.469,0.196,5.195,0.325c1.244,0.093,2.479,0.215,3.719,0.321  c1.638,0.14,3.278,0.268,4.909,0.431c1.285,0.128,2.561,0.285,3.841,0.427c1.577,0.175,3.157,0.338,4.727,0.534  c1.303,0.162,2.597,0.353,3.895,0.53c1.537,0.209,3.078,0.408,4.609,0.637c1.31,0.196,2.611,0.42,3.916,0.63  c1.509,0.243,3.021,0.477,4.523,0.74c1.306,0.229,2.604,0.484,3.905,0.727c1.49,0.278,2.983,0.547,4.466,0.845  c1.305,0.261,2.6,0.549,3.899,0.825c1.466,0.311,2.934,0.614,4.393,0.944c1.305,0.295,2.6,0.614,3.899,0.924  c1.442,0.344,2.888,0.68,4.323,1.041c1.297,0.327,2.583,0.677,3.874,1.018c1.424,0.376,2.851,0.746,4.268,1.139  c1.292,0.359,2.575,0.741,3.861,1.115c1.402,0.407,2.806,0.808,4.2,1.233c1.285,0.391,2.561,0.804,3.84,1.21  c1.381,0.438,2.764,0.871,4.137,1.325c1.275,0.422,2.539,0.865,3.807,1.301c1.365,0.47,2.733,0.935,4.09,1.421  c1.262,0.452,2.514,0.923,3.768,1.389c1.347,0.5,2.696,0.996,4.034,1.513c1.254,0.484,2.499,0.986,3.746,1.484  c1.324,0.529,2.65,1.054,3.966,1.598c1.243,0.514,2.476,1.046,3.711,1.574c1.306,0.558,2.613,1.113,3.91,1.687  c1.228,0.543,2.447,1.102,3.667,1.659c1.289,0.588,2.579,1.174,3.86,1.777c1.213,0.571,2.416,1.158,3.621,1.743  c1.27,0.616,2.541,1.231,3.802,1.863c1.199,0.6,2.389,1.215,3.58,1.829c1.251,0.645,2.503,1.289,3.746,1.948  c1.183,0.628,2.357,1.27,3.531,1.911c1.232,0.672,2.464,1.345,3.687,2.031c1.169,0.657,2.33,1.327,3.491,1.997  c1.209,0.698,2.418,1.396,3.618,2.108c1.154,0.685,2.3,1.382,3.445,2.08c1.19,0.725,2.38,1.451,3.561,2.19  c1.135,0.71,2.261,1.432,3.387,2.155c1.172,0.753,2.343,1.507,3.505,2.273c1.117,0.736,2.226,1.484,3.333,2.232  c1.151,0.778,2.3,1.559,3.441,2.35c1.1,0.763,2.191,1.536,3.281,2.311c1.129,0.803,2.256,1.609,3.375,2.425  c1.083,0.79,2.158,1.589,3.231,2.391c1.107,0.827,2.211,1.658,3.307,2.497c1.062,0.814,2.117,1.636,3.17,2.462  c1.088,0.854,2.172,1.711,3.249,2.577c1.042,0.838,2.077,1.684,3.108,2.533c1.064,0.876,2.124,1.757,3.177,2.646  c1.024,0.864,2.041,1.735,3.054,2.61c1.041,0.899,2.078,1.804,3.107,2.715c1.003,0.888,2.001,1.783,2.994,2.683  c1.018,0.922,2.03,1.849,3.037,2.783c0.981,0.91,1.956,1.827,2.926,2.748c0.997,0.947,1.989,1.901,2.975,2.86  c0.958,0.932,1.911,1.87,2.858,2.813c0.972,0.968,1.938,1.943,2.899,2.923c0.938,0.956,1.87,1.917,2.796,2.884  c0.949,0.991,1.89,1.988,2.827,2.989c0.914,0.978,1.824,1.96,2.727,2.948c0.924,1.011,1.84,2.029,2.751,3.052  c0.892,1.001,1.78,2.005,2.661,3.015c0.899,1.033,1.79,2.072,2.677,3.116c0.868,1.021,1.732,2.045,2.588,3.076  c0.874,1.053,1.74,2.114,2.601,3.178c0.844,1.042,1.685,2.086,2.517,3.138c0.849,1.074,1.689,2.156,2.525,3.24  c0.818,1.061,1.634,2.123,2.44,3.194c0.825,1.096,1.64,2.201,2.452,3.307c0.792,1.079,1.582,2.159,2.361,3.247  c0.799,1.116,1.586,2.24,2.372,3.365c0.767,1.099,1.533,2.2,2.287,3.308c0.771,1.134,1.53,2.276,2.288,3.419  c0.742,1.119,1.482,2.238,2.211,3.366c0.743,1.15,1.473,2.309,2.202,3.469c0.717,1.14,1.433,2.279,2.137,3.428  c0.716,1.169,1.417,2.347,2.119,3.525c0.688,1.155,1.377,2.31,2.052,3.474c0.688,1.188,1.362,2.385,2.036,3.581  c0.661,1.174,1.324,2.347,1.971,3.529c0.659,1.204,1.303,2.417,1.948,3.63c0.633,1.191,1.268,2.38,1.888,3.579  c0.631,1.221,1.245,2.451,1.861,3.681c0.605,1.208,1.214,2.415,1.805,3.631c0.601,1.236,1.184,2.482,1.77,3.726  c0.577,1.225,1.157,2.449,1.72,3.682c0.571,1.252,1.124,2.514,1.68,3.774c0.548,1.241,1.099,2.479,1.632,3.728  c0.541,1.268,1.063,2.546,1.589,3.822c0.518,1.256,1.04,2.509,1.543,3.773c0.511,1.284,1.002,2.578,1.497,3.87  c0.487,1.269,0.98,2.536,1.452,3.812c0.481,1.301,0.94,2.613,1.406,3.921c0.456,1.282,0.918,2.561,1.358,3.849  c0.45,1.317,0.877,2.643,1.311,3.967c0.424,1.295,0.856,2.587,1.265,3.888c0.418,1.331,0.813,2.673,1.215,4.011  c0.393,1.308,0.794,2.612,1.171,3.927c0.387,1.348,0.749,2.707,1.119,4.062c0.36,1.316,0.728,2.629,1.072,3.951  c0.355,1.366,0.684,2.743,1.023,4.116c0.327,1.325,0.663,2.647,0.974,3.978c0.321,1.378,0.616,2.765,0.92,4.149  c0.294,1.339,0.6,2.673,0.878,4.018c0.288,1.394,0.548,2.798,0.819,4.198c0.26,1.346,0.533,2.687,0.777,4.038  c0.256,1.417,0.482,2.844,0.72,4.266c0.225,1.346,0.463,2.687,0.672,4.038c0.222,1.439,0.414,2.888,0.618,4.333  c0.19,1.346,0.394,2.689,0.568,4.04c0.188,1.462,0.344,2.934,0.513,4.402c0.155,1.344,0.325,2.684,0.464,4.033  c0.154,1.498,0.274,3.005,0.408,4.508c0.118,1.329,0.254,2.654,0.356,3.987c0.12,1.558,0.204,3.125,0.303,4.688  c0.081,1.289,0.181,2.573,0.247,3.866c0.093,1.803,0.146,3.616,0.21,5.426c0.037,1.061,0.095,2.116,0.122,3.179  C697.328,343.04,695.015,344.467,692.696,345.881z"/>
<path fill="#ED2024" d="M699.299,332.992c-0.066-1.293-0.166-2.577-0.247-3.866c-0.098-1.563-0.183-3.131-0.303-4.688  c-0.103-1.333-0.238-2.658-0.356-3.987c-0.134-1.503-0.254-3.011-0.408-4.508c-0.139-1.349-0.309-2.689-0.464-4.033  c-0.169-1.468-0.325-2.939-0.513-4.402c-0.174-1.351-0.378-2.693-0.568-4.04c-0.204-1.445-0.395-2.894-0.618-4.333  c-0.209-1.351-0.447-2.692-0.672-4.038c-0.238-1.423-0.464-2.85-0.72-4.266c-0.244-1.351-0.516-2.693-0.777-4.038  c-0.271-1.4-0.531-2.804-0.819-4.198c-0.278-1.344-0.584-2.679-0.878-4.018c-0.304-1.384-0.599-2.772-0.92-4.149  c-0.311-1.331-0.647-2.653-0.974-3.978c-0.338-1.373-0.667-2.749-1.023-4.116c-0.344-1.322-0.713-2.635-1.072-3.951  c-0.37-1.355-0.732-2.713-1.119-4.062c-0.377-1.314-0.778-2.619-1.171-3.927c-0.402-1.338-0.796-2.679-1.215-4.011  c-0.409-1.302-0.841-2.593-1.265-3.888c-0.434-1.324-0.861-2.65-1.311-3.967c-0.44-1.289-0.903-2.568-1.358-3.849  c-0.465-1.309-0.925-2.62-1.406-3.921c-0.472-1.276-0.965-2.543-1.452-3.812c-0.496-1.292-0.986-2.586-1.497-3.87  c-0.503-1.263-1.026-2.517-1.543-3.773c-0.526-1.276-1.048-2.554-1.589-3.822c-0.533-1.248-1.085-2.487-1.632-3.728  c-0.556-1.26-1.109-2.522-1.68-3.774c-0.563-1.233-1.143-2.457-1.72-3.682c-0.586-1.244-1.169-2.49-1.77-3.726  c-0.591-1.216-1.199-2.423-1.805-3.631c-0.616-1.229-1.23-2.46-1.861-3.681c-0.619-1.199-1.254-2.388-1.888-3.579  c-0.645-1.213-1.289-2.426-1.948-3.63c-0.648-1.182-1.31-2.355-1.971-3.529c-0.674-1.197-1.348-2.393-2.036-3.581  c-0.675-1.164-1.364-2.319-2.052-3.474c-0.702-1.178-1.403-2.356-2.119-3.525c-0.703-1.149-1.42-2.288-2.137-3.428  c-0.729-1.159-1.459-2.319-2.202-3.469c-0.728-1.128-1.469-2.247-2.211-3.366c-0.758-1.143-1.517-2.285-2.288-3.419  c-0.754-1.109-1.52-2.209-2.287-3.308c-0.785-1.125-1.573-2.249-2.372-3.365c-0.779-1.088-1.569-2.168-2.361-3.247  c-0.812-1.106-1.627-2.211-2.452-3.307c-0.806-1.07-1.622-2.133-2.44-3.194c-0.836-1.084-1.676-2.166-2.525-3.24  c-0.832-1.052-1.673-2.096-2.517-3.138c-0.862-1.064-1.727-2.125-2.601-3.178c-0.856-1.031-1.72-2.055-2.588-3.076  c-0.887-1.043-1.778-2.083-2.677-3.116c-0.88-1.011-1.769-2.015-2.661-3.015c-0.911-1.022-1.828-2.04-2.751-3.052  c-0.903-0.988-1.813-1.97-2.727-2.948c-0.937-1.002-1.878-1.999-2.827-2.989c-0.926-0.967-1.859-1.928-2.796-2.884  c-0.961-0.98-1.927-1.954-2.899-2.923c-0.947-0.943-1.9-1.881-2.858-2.813c-0.986-0.959-1.977-1.912-2.975-2.86  c-0.97-0.922-1.945-1.838-2.926-2.748c-1.006-0.934-2.019-1.861-3.037-2.783c-0.993-0.899-1.99-1.794-2.994-2.683  c-1.03-0.911-2.067-1.816-3.107-2.715c-1.013-0.875-2.03-1.747-3.054-2.61c-1.053-0.889-2.113-1.769-3.177-2.646  c-1.032-0.85-2.066-1.695-3.108-2.533c-1.077-0.866-2.161-1.724-3.249-2.577c-1.052-0.826-2.107-1.648-3.17-2.462  c-1.096-0.84-2.2-1.67-3.307-2.497c-1.073-0.802-2.148-1.601-3.231-2.391c-1.119-0.816-2.246-1.622-3.375-2.425  c-1.09-0.775-2.182-1.548-3.281-2.311c-1.141-0.792-2.29-1.572-3.441-2.35c-1.108-0.749-2.216-1.496-3.333-2.232  c-1.162-0.766-2.333-1.521-3.505-2.273c-1.126-0.723-2.252-1.445-3.387-2.155c-1.181-0.739-2.37-1.465-3.561-2.19  c-1.145-0.698-2.291-1.395-3.445-2.08c-1.2-0.712-2.409-1.41-3.618-2.108c-1.161-0.67-2.321-1.34-3.491-1.997  c-1.223-0.687-2.455-1.359-3.687-2.031c-1.174-0.641-2.349-1.283-3.531-1.911c-1.242-0.659-2.494-1.303-3.746-1.948  c-1.191-0.614-2.381-1.229-3.58-1.829c-1.261-0.631-2.532-1.246-3.802-1.863c-1.205-0.585-2.408-1.172-3.621-1.743  c-1.281-0.603-2.571-1.189-3.86-1.777c-1.22-0.556-2.439-1.116-3.667-1.659c-1.297-0.573-2.605-1.129-3.91-1.687  c-1.235-0.528-2.468-1.06-3.711-1.574c-1.316-0.544-2.642-1.07-3.966-1.598c-1.247-0.498-2.491-1-3.746-1.484  c-1.339-0.516-2.688-1.012-4.034-1.513c-1.255-0.466-2.507-0.938-3.768-1.389c-1.357-0.486-2.725-0.951-4.09-1.421  c-1.268-0.436-2.533-0.879-3.807-1.301c-1.373-0.455-2.757-0.887-4.137-1.325c-1.279-0.406-2.555-0.819-3.84-1.21  c-1.394-0.424-2.799-0.826-4.2-1.233c-1.286-0.374-2.569-0.755-3.861-1.115c-1.417-0.394-2.844-0.763-4.268-1.139  c-1.291-0.341-2.577-0.691-3.874-1.018c-1.435-0.361-2.881-0.697-4.323-1.041c-1.299-0.31-2.594-0.629-3.899-0.924  c-1.459-0.33-2.927-0.632-4.393-0.944c-1.299-0.276-2.595-0.563-3.899-0.825c-1.483-0.297-2.976-0.566-4.466-0.845  c-1.301-0.243-2.599-0.498-3.905-0.727c-1.502-0.263-3.014-0.496-4.523-0.74c-1.305-0.211-2.606-0.434-3.916-0.63  c-1.531-0.229-3.071-0.428-4.609-0.637c-1.298-0.177-2.592-0.367-3.895-0.53c-1.57-0.196-3.15-0.359-4.727-0.534  c-1.281-0.142-2.557-0.299-3.841-0.427c-1.631-0.162-3.272-0.291-4.909-0.431c-1.24-0.106-2.475-0.228-3.719-0.321  c-1.726-0.129-3.462-0.222-5.195-0.325c-1.166-0.07-2.327-0.157-3.496-0.215c-1.937-0.096-3.883-0.154-5.828-0.219  c-0.973-0.032-1.941-0.084-2.916-0.108c-2.925-0.073-5.858-0.11-8.8-0.11s-5.875,0.037-8.8,0.11  c-0.975,0.024-1.943,0.076-2.916,0.108c-1.945,0.064-3.891,0.122-5.828,0.219c-1.169,0.058-2.33,0.146-3.496,0.215  c-1.733,0.103-3.469,0.196-5.195,0.325c-1.244,0.093-2.479,0.215-3.719,0.321c-1.638,0.14-3.278,0.268-4.909,0.431  c-1.285,0.128-2.561,0.285-3.841,0.427c-1.577,0.175-3.157,0.338-4.727,0.534c-1.303,0.162-2.597,0.353-3.896,0.53  c-1.537,0.209-3.078,0.408-4.609,0.637c-1.31,0.196-2.611,0.42-3.916,0.63c-1.509,0.243-3.021,0.477-4.523,0.74  c-1.306,0.229-2.604,0.484-3.905,0.727c-1.49,0.278-2.983,0.547-4.466,0.845c-1.305,0.261-2.6,0.549-3.899,0.825  c-1.466,0.311-2.934,0.614-4.393,0.944c-1.305,0.295-2.6,0.614-3.899,0.924c-1.443,0.344-2.888,0.68-4.323,1.041  c-1.297,0.327-2.583,0.677-3.874,1.018c-1.424,0.376-2.851,0.746-4.268,1.139c-1.292,0.359-2.575,0.741-3.861,1.115  c-1.402,0.407-2.806,0.808-4.2,1.233c-1.285,0.391-2.561,0.804-3.84,1.21c-1.381,0.438-2.764,0.871-4.137,1.325  c-1.275,0.422-2.539,0.865-3.807,1.301c-1.365,0.47-2.733,0.935-4.09,1.421c-1.262,0.452-2.514,0.923-3.768,1.389  c-1.347,0.5-2.696,0.996-4.034,1.513c-1.254,0.484-2.499,0.986-3.746,1.484c-1.324,0.529-2.65,1.054-3.966,1.598  c-1.243,0.514-2.476,1.046-3.711,1.574c-1.306,0.558-2.613,1.113-3.91,1.687c-1.228,0.543-2.447,1.102-3.667,1.659  c-1.289,0.588-2.579,1.174-3.86,1.777c-1.213,0.571-2.416,1.158-3.621,1.743c-1.27,0.616-2.541,1.231-3.802,1.863  c-1.199,0.6-2.389,1.215-3.58,1.829c-1.251,0.645-2.503,1.289-3.746,1.948c-1.183,0.628-2.357,1.27-3.531,1.911  c-1.232,0.672-2.464,1.345-3.687,2.031c-1.169,0.657-2.33,1.327-3.491,1.997c-1.209,0.698-2.418,1.396-3.618,2.108  c-1.154,0.685-2.3,1.382-3.445,2.08c-1.19,0.725-2.38,1.451-3.561,2.19c-1.135,0.71-2.261,1.432-3.387,2.155  c-1.172,0.753-2.343,1.507-3.505,2.273c-1.117,0.736-2.226,1.484-3.333,2.232c-1.151,0.778-2.3,1.559-3.441,2.35  c-1.1,0.763-2.191,1.536-3.282,2.311c-1.129,0.803-2.256,1.609-3.375,2.425c-1.083,0.79-2.158,1.589-3.231,2.391  c-1.107,0.827-2.211,1.658-3.307,2.497c-1.062,0.814-2.117,1.636-3.17,2.462c-1.088,0.854-2.173,1.711-3.25,2.578  c-1.04,0.837-2.074,1.681-3.104,2.53c-1.066,0.878-2.129,1.761-3.184,2.651c-1.022,0.863-2.038,1.732-3.05,2.607  c-1.042,0.9-2.078,1.805-3.109,2.716c-1.003,0.888-2.001,1.783-2.994,2.683c-1.017,0.922-2.03,1.849-3.036,2.782  c-0.982,0.911-1.959,1.829-2.93,2.752c-0.996,0.946-1.985,1.897-2.969,2.854c-0.96,0.934-1.914,1.872-2.862,2.817  c-0.972,0.968-1.938,1.942-2.898,2.922c-0.938,0.956-1.87,1.917-2.796,2.884c-0.949,0.991-1.89,1.988-2.827,2.989  c-0.914,0.978-1.824,1.96-2.727,2.948c-0.924,1.011-1.84,2.029-2.751,3.052c-0.892,1.001-1.78,2.005-2.661,3.015  c-0.899,1.033-1.79,2.072-2.677,3.116c-0.868,1.021-1.732,2.045-2.588,3.076c-0.874,1.053-1.74,2.114-2.601,3.178  c-0.844,1.042-1.685,2.086-2.517,3.138c-0.849,1.074-1.689,2.156-2.525,3.24c-0.818,1.061-1.634,2.123-2.44,3.194  c-0.825,1.096-1.64,2.201-2.452,3.307c-0.792,1.079-1.582,2.159-2.361,3.247c-0.799,1.116-1.586,2.24-2.372,3.365  c-0.767,1.099-1.533,2.2-2.287,3.308c-0.771,1.134-1.53,2.276-2.288,3.419c-0.742,1.119-1.482,2.238-2.211,3.366  c-0.743,1.15-1.473,2.309-2.202,3.469c-0.717,1.14-1.433,2.279-2.137,3.428c-0.716,1.169-1.418,2.348-2.12,3.527  c-0.687,1.154-1.375,2.308-2.049,3.47c-0.689,1.189-1.364,2.388-2.039,3.586c-0.661,1.173-1.323,2.344-1.969,3.525  c-0.66,1.204-1.303,2.418-1.948,3.63c-0.633,1.191-1.268,2.38-1.888,3.579c-0.631,1.221-1.245,2.451-1.861,3.681  c-0.605,1.208-1.214,2.415-1.805,3.631c-0.601,1.237-1.185,2.483-1.771,3.728c-0.576,1.224-1.156,2.446-1.718,3.678  c-0.572,1.254-1.126,2.518-1.683,3.781c-0.547,1.238-1.097,2.475-1.629,3.721c-0.542,1.27-1.065,2.55-1.591,3.827  c-0.517,1.255-1.039,2.507-1.542,3.769c-0.511,1.284-1.002,2.578-1.497,3.87c-0.487,1.269-0.98,2.536-1.452,3.812  c-0.481,1.301-0.941,2.613-1.406,3.921c-0.456,1.282-0.918,2.561-1.358,3.849c-0.45,1.317-0.878,2.645-1.312,3.969  c-0.424,1.294-0.856,2.584-1.264,3.885c-0.419,1.334-0.814,2.677-1.217,4.018c-0.392,1.306-0.793,2.608-1.169,3.92  c-0.387,1.351-0.75,2.711-1.121,4.069c-0.359,1.314-0.727,2.624-1.07,3.944c-0.356,1.368-0.685,2.746-1.024,4.12  c-0.326,1.324-0.663,2.644-0.973,3.975c-0.322,1.379-0.616,2.767-0.921,4.152c-0.294,1.338-0.599,2.671-0.877,4.014  c-0.289,1.396-0.549,2.802-0.82,4.204c-0.26,1.343-0.532,2.682-0.775,4.031c-0.256,1.419-0.483,2.848-0.721,4.273  c-0.225,1.343-0.462,2.682-0.671,4.031c-0.223,1.441-0.415,2.892-0.619,4.34c-0.19,1.344-0.394,2.684-0.567,4.033  c-0.188,1.463-0.344,2.936-0.513,4.405c-0.155,1.343-0.325,2.682-0.463,4.03c-0.154,1.499-0.274,3.007-0.408,4.512  c-0.118,1.328-0.253,2.651-0.356,3.983c-0.12,1.56-0.205,3.13-0.303,4.697c-0.081,1.286-0.18,2.568-0.246,3.858  c-0.093,1.807-0.147,3.623-0.211,5.437c-0.037,1.057-0.094,2.109-0.122,3.168c2.303,1.442,4.616,2.869,6.935,4.283  c0.786,0.479,1.577,0.948,2.364,1.424c1.54,0.93,3.079,1.861,4.626,2.779c0.938,0.556,1.881,1.103,2.821,1.655  c1.402,0.823,2.804,1.647,4.213,2.46c1.008,0.582,2.022,1.156,3.033,1.732c1.348,0.769,2.696,1.539,4.05,2.298  c1.053,0.591,2.11,1.174,3.166,1.76c1.317,0.73,2.635,1.46,3.957,2.181c1.085,0.592,2.173,1.178,3.262,1.764  c1.302,0.701,2.605,1.401,3.912,2.093c1.108,0.587,2.218,1.169,3.329,1.75c1.293,0.676,2.587,1.349,3.885,2.016  c1.128,0.58,2.258,1.157,3.389,1.731c1.289,0.654,2.58,1.303,3.873,1.949c1.142,0.57,2.285,1.138,3.431,1.702  c1.293,0.636,2.588,1.266,3.885,1.894c1.151,0.557,2.303,1.113,3.457,1.664c1.296,0.618,2.595,1.229,3.895,1.838  c1.162,0.545,2.324,1.091,3.49,1.629c1.303,0.602,2.61,1.195,3.916,1.788c1.168,0.53,2.334,1.063,3.505,1.586  c1.315,0.588,2.635,1.166,3.955,1.745c1.167,0.512,2.332,1.029,3.502,1.535c1.341,0.58,2.688,1.147,4.033,1.718  c1.156,0.491,2.31,0.987,3.469,1.471c1.39,0.58,2.785,1.147,4.179,1.717c1.121,0.459,2.239,0.926,3.363,1.379  c2.276,0.917,4.559,1.819,6.846,2.711c1.35,0.526,2.705,1.04,4.058,1.558c1.355,0.518,2.707,1.041,4.065,1.55  c1.275,0.478,2.555,0.942,3.834,1.411c1.263,0.464,2.525,0.933,3.791,1.389c1.314,0.474,2.634,0.935,3.951,1.401  c1.24,0.438,2.479,0.879,3.721,1.309c1.338,0.463,2.681,0.916,4.022,1.371c1.225,0.415,2.449,0.832,3.677,1.24  c1.356,0.451,2.716,0.892,4.076,1.334c1.221,0.397,2.442,0.793,3.665,1.183c1.371,0.436,2.745,0.865,4.12,1.293  c1.217,0.379,2.435,0.756,3.655,1.127c1.384,0.421,2.771,0.837,4.159,1.249c1.214,0.361,2.429,0.718,3.646,1.072  c1.401,0.407,2.803,0.809,4.207,1.207c1.208,0.342,2.418,0.68,3.628,1.015c1.416,0.392,2.833,0.781,4.252,1.164  c1.203,0.324,2.409,0.642,3.614,0.96c1.432,0.377,2.865,0.753,4.301,1.12c1.191,0.305,2.385,0.602,3.578,0.9  c1.457,0.364,2.914,0.728,4.374,1.081c1.17,0.283,2.342,0.558,3.514,0.834c1.487,0.351,2.974,0.704,4.465,1.045  c1.141,0.261,2.286,0.511,3.43,0.766c1.525,0.34,3.05,0.683,4.578,1.012c1.074,0.231,2.151,0.45,3.227,0.676  c1.605,0.336,3.209,0.677,4.818,1.002c0.795,0.16,1.592,0.31,2.388,0.467c4.437,0.877,8.886,1.717,13.352,2.5  c0.01,0.002,0.021,0.004,0.031,0.006c0.278-0.912,0.553-1.824,0.857-2.73c0.484-1.441,1.007-2.888,1.555-4.302  c16.221-41.86,59.477-69.983,107.638-69.983s91.418,28.122,107.637,69.979c0.55,1.418,1.073,2.867,1.557,4.307  c0.304,0.905,0.579,1.817,0.856,2.728c4.482-0.786,8.947-1.629,13.401-2.51c0.789-0.156,1.58-0.304,2.367-0.463  c1.607-0.324,3.209-0.664,4.812-1c1.079-0.226,2.161-0.446,3.239-0.678c1.522-0.327,3.04-0.669,4.559-1.007  c1.15-0.256,2.302-0.508,3.45-0.771c1.485-0.339,2.965-0.691,4.446-1.041c1.179-0.278,2.359-0.554,3.536-0.839  c1.454-0.352,2.904-0.714,4.354-1.076c1.2-0.299,2.4-0.598,3.597-0.905c1.431-0.366,2.859-0.74,4.287-1.116  c1.211-0.319,2.421-0.638,3.629-0.964c1.414-0.381,2.826-0.769,4.237-1.159c1.217-0.337,2.433-0.676,3.647-1.02  c1.398-0.396,2.795-0.797,4.19-1.202c1.22-0.354,2.438-0.713,3.655-1.074c1.388-0.412,2.774-0.828,4.158-1.249  c1.221-0.372,2.44-0.749,3.659-1.128c1.371-0.426,2.742-0.854,4.111-1.29c1.227-0.391,2.452-0.789,3.676-1.186  c1.356-0.441,2.712-0.881,4.065-1.33c1.232-0.409,2.46-0.828,3.689-1.244c1.34-0.454,2.68-0.906,4.016-1.369  c1.246-0.432,2.488-0.873,3.731-1.312c1.312-0.463,2.625-0.923,3.933-1.394c1.281-0.462,2.557-0.936,3.835-1.405  c1.265-0.465,2.533-0.924,3.795-1.397c1.373-0.514,2.74-1.043,4.108-1.566c1.23-0.47,2.462-0.934,3.689-1.412  c2.402-0.935,4.799-1.884,7.189-2.847c1.077-0.434,2.148-0.881,3.222-1.32c1.438-0.589,2.878-1.174,4.312-1.772  c1.153-0.481,2.3-0.975,3.45-1.463c1.349-0.572,2.698-1.141,4.043-1.723c1.169-0.505,2.334-1.022,3.5-1.534  c1.323-0.581,2.646-1.16,3.965-1.749c1.167-0.522,2.329-1.052,3.493-1.58c1.309-0.594,2.618-1.188,3.923-1.791  c1.165-0.538,2.326-1.084,3.488-1.628c1.301-0.61,2.6-1.221,3.897-1.839c1.154-0.55,2.304-1.106,3.455-1.663  c1.299-0.629,2.597-1.26,3.893-1.898c1.139-0.56,2.275-1.125,3.411-1.692c1.302-0.65,2.602-1.304,3.899-1.962  c1.123-0.57,2.245-1.143,3.365-1.719c1.305-0.671,2.607-1.348,3.907-2.028c1.105-0.578,2.209-1.157,3.311-1.741  c1.312-0.695,2.62-1.397,3.927-2.101c1.084-0.584,2.168-1.167,3.249-1.757c1.324-0.723,2.645-1.453,3.964-2.185  c1.056-0.585,2.113-1.169,3.166-1.76c1.349-0.758,2.694-1.525,4.038-2.292c1.014-0.579,2.031-1.154,3.042-1.738  c1.409-0.813,2.812-1.638,4.215-2.462c0.939-0.551,1.881-1.097,2.818-1.653c1.547-0.918,3.087-1.849,4.626-2.779  c0.788-0.476,1.579-0.945,2.364-1.424c2.319-1.414,4.632-2.841,6.935-4.283c-0.027-1.063-0.085-2.119-0.122-3.179  C699.445,336.608,699.391,334.795,699.299,332.992z"/>
<g>
	<path fill="#FFFFFF" d="M635.484,425.051c-1.349,0.603-2.705,1.183-4.056,1.777c-2.422,1.065-4.844,2.13-7.274,3.166   c-1.678,0.715-3.362,1.408-5.044,2.11c-2.096,0.874-4.192,1.75-6.294,2.603c-1.876,0.761-3.757,1.503-5.637,2.247   c-1.894,0.749-3.789,1.498-5.687,2.229c-2.043,0.788-4.089,1.559-6.137,2.326c-1.718,0.644-3.438,1.283-5.159,1.913   c-2.207,0.807-4.417,1.602-6.63,2.385c-1.526,0.54-3.053,1.073-4.582,1.602c-2.401,0.831-4.804,1.653-7.211,2.457   c-1.278,0.426-2.558,0.843-3.838,1.262c-2.649,0.867-5.299,1.726-7.955,2.56c-0.905,0.284-1.813,0.558-2.719,0.838   c-3.027,0.936-6.056,1.863-9.093,2.756c-0.165,0.049-0.331,0.094-0.496,0.143c-25.945,7.611-52.243,13.64-78.836,18.097   c-0.001,0-0.003,0.001-0.004,0.001c-0.337,2.2-0.722,4.395-1.207,6.576c-0.649,2.914-1.408,5.753-2.257,8.436   c-14.147,44.699-59.266,75.916-109.722,75.916c-50.455,0-95.575-31.218-109.721-75.916c-0.849-2.684-1.608-5.522-2.257-8.436   c-0.486-2.181-0.87-4.377-1.207-6.576c0,0,0,0,0,0c-26.598-4.457-52.901-10.488-78.852-18.101c-0.16-0.047-0.321-0.091-0.482-0.139   c-3.041-0.895-6.075-1.822-9.106-2.76c-0.901-0.279-1.804-0.551-2.704-0.833c-2.657-0.834-5.308-1.693-7.958-2.561   c-1.282-0.419-2.564-0.837-3.845-1.264c-2.404-0.803-4.804-1.624-7.202-2.454c-1.53-0.529-3.059-1.063-4.586-1.603   c-2.213-0.784-4.424-1.578-6.631-2.386c-1.722-0.629-3.441-1.269-5.159-1.913c-2.047-0.767-4.094-1.538-6.136-2.326   c-1.899-0.732-3.793-1.48-5.688-2.229c-1.88-0.744-3.761-1.485-5.637-2.247c-2.102-0.853-4.198-1.728-6.294-2.603   c-1.682-0.702-3.366-1.394-5.044-2.11c-2.43-1.036-4.852-2.101-7.274-3.166c-1.352-0.594-2.707-1.174-4.056-1.777   c-3.779-1.69-7.55-3.411-11.31-5.172c-17.043-7.983-33.741-16.644-50.099-25.933c0.001,0.009,0.003,0.018,0.004,0.027   c0.61,4.646,1.331,9.259,2.131,13.845c0.098,0.564,0.185,1.132,0.286,1.696c0.306,1.702,0.643,3.393,0.975,5.087   c0.188,0.958,0.365,1.919,0.561,2.873c0.327,1.594,0.68,3.179,1.03,4.765c0.23,1.043,0.454,2.089,0.693,3.128   c0.355,1.538,0.731,3.069,1.107,4.6c0.264,1.075,0.526,2.152,0.801,3.223c0.386,1.505,0.789,3.003,1.195,4.5   c0.294,1.082,0.589,2.164,0.893,3.242c0.419,1.483,0.85,2.961,1.289,4.436c0.321,1.079,0.647,2.155,0.978,3.23   c0.452,1.466,0.913,2.928,1.385,4.385c0.346,1.068,0.699,2.131,1.056,3.194c0.488,1.456,0.98,2.91,1.488,4.357   c0.366,1.045,0.744,2.085,1.12,3.125c0.526,1.453,1.052,2.905,1.597,4.348c0.382,1.011,0.778,2.016,1.169,3.022   c0.568,1.461,1.134,2.924,1.723,4.376c0.383,0.945,0.782,1.882,1.174,2.823c0.624,1.5,1.243,3.002,1.888,4.491   c0.33,0.762,0.677,1.514,1.012,2.273c2.446,5.534,5.037,10.99,7.769,16.366c0.397,0.78,0.782,1.567,1.185,2.344   c0.724,1.397,1.471,2.779,2.214,4.165c0.501,0.935,0.995,1.875,1.506,2.805c0.726,1.324,1.471,2.635,2.214,3.948   c0.553,0.977,1.102,1.956,1.664,2.927c0.741,1.279,1.497,2.547,2.254,3.815c0.589,0.988,1.178,1.976,1.778,2.957   c0.76,1.245,1.533,2.482,2.309,3.717c0.622,0.99,1.248,1.978,1.88,2.962c0.781,1.215,1.571,2.423,2.367,3.627   c0.651,0.984,1.307,1.964,1.968,2.941c0.805,1.19,1.615,2.375,2.434,3.554c0.678,0.975,1.365,1.945,2.053,2.913   c0.828,1.164,1.657,2.327,2.499,3.481c0.702,0.962,1.416,1.915,2.128,2.87c0.854,1.145,1.707,2.291,2.576,3.425   c0.72,0.94,1.453,1.869,2.183,2.801c0.884,1.13,1.763,2.262,2.661,3.38c0.736,0.917,1.489,1.821,2.235,2.73   c0.914,1.115,1.821,2.235,2.749,3.338c0.726,0.863,1.471,1.711,2.205,2.567c1.853,2.159,3.733,4.294,5.639,6.407   c0.772,0.856,1.535,1.721,2.316,2.569c0.932,1.012,1.885,2.006,2.829,3.008c0.857,0.908,1.707,1.823,2.574,2.722   c0.941,0.976,1.9,1.937,2.853,2.902c0.893,0.905,1.783,1.813,2.686,2.708c0.956,0.947,1.926,1.881,2.894,2.818   c0.921,0.891,1.84,1.783,2.771,2.664c0.974,0.922,1.959,1.833,2.944,2.743c0.947,0.875,1.895,1.749,2.852,2.614   c0.989,0.894,1.985,1.779,2.984,2.661c0.977,0.863,1.958,1.721,2.945,2.573c1,0.863,2.005,1.721,3.015,2.573   c1.008,0.85,2.021,1.692,3.039,2.53c1.01,0.833,2.023,1.663,3.043,2.484c1.042,0.839,2.092,1.667,3.144,2.494   c1.017,0.799,2.033,1.599,3.06,2.387c1.079,0.829,2.169,1.645,3.259,2.461c1.018,0.763,2.033,1.53,3.061,2.282   c1.135,0.831,2.283,1.646,3.429,2.464c1,0.714,1.995,1.435,3.003,2.138c1.253,0.874,2.522,1.728,3.787,2.587   c0.918,0.623,1.828,1.257,2.753,1.871c2.155,1.432,4.327,2.842,6.517,4.227c0.751,0.475,1.514,0.931,2.269,1.4   c1.495,0.93,2.989,1.861,4.5,2.768c0.968,0.582,1.949,1.144,2.924,1.717c1.315,0.773,2.628,1.548,3.955,2.304   c1.034,0.589,2.079,1.162,3.12,1.74c1.284,0.714,2.567,1.429,3.861,2.128c1.072,0.578,2.152,1.142,3.231,1.71   c1.281,0.673,2.562,1.346,3.852,2.004c1.097,0.559,2.2,1.108,3.303,1.656c1.291,0.641,2.584,1.278,3.884,1.903   c1.112,0.535,2.228,1.062,3.347,1.586c1.31,0.613,2.625,1.219,3.945,1.816c1.121,0.508,2.245,1.011,3.372,1.507   c1.337,0.588,2.681,1.165,4.027,1.737c1.122,0.477,2.245,0.953,3.373,1.418c1.378,0.568,2.763,1.121,4.15,1.672   c1.109,0.441,2.217,0.885,3.333,1.314c1.443,0.556,2.896,1.093,4.349,1.631c1.071,0.396,2.138,0.799,3.214,1.185   c1.565,0.561,3.141,1.099,4.716,1.639c0.978,0.335,1.951,0.681,2.934,1.007c1.931,0.642,3.875,1.255,5.821,1.864   c0.637,0.199,1.269,0.412,1.908,0.608c2.58,0.79,5.173,1.551,7.778,2.283c0.775,0.218,1.559,0.417,2.336,0.629   c1.846,0.505,3.693,1.008,5.552,1.483c1.024,0.262,2.056,0.504,3.084,0.756c1.625,0.4,3.251,0.8,4.885,1.176   c1.116,0.257,2.238,0.497,3.358,0.743c1.557,0.343,3.115,0.684,4.68,1.006c1.165,0.24,2.336,0.465,3.506,0.693   c1.536,0.299,3.073,0.594,4.616,0.873c1.191,0.215,2.386,0.42,3.582,0.623c1.533,0.26,3.069,0.513,4.609,0.754   c1.209,0.189,2.421,0.37,3.634,0.547c1.542,0.224,3.088,0.437,4.636,0.641c1.214,0.16,2.43,0.317,3.648,0.464   c1.567,0.19,3.14,0.364,4.714,0.532c1.206,0.129,2.411,0.259,3.621,0.376c1.612,0.156,3.23,0.291,4.848,0.425   c1.178,0.097,2.355,0.2,3.537,0.286c1.695,0.122,3.396,0.221,5.097,0.319c1.113,0.064,2.224,0.139,3.34,0.193   c1.885,0.091,3.777,0.152,5.67,0.213c0.939,0.03,1.875,0.075,2.817,0.097c2.836,0.068,5.68,0.107,8.533,0.107   s5.697-0.038,8.533-0.107c0.941-0.023,1.877-0.067,2.817-0.097c1.892-0.061,3.785-0.122,5.669-0.213   c1.116-0.054,2.227-0.128,3.34-0.193c1.701-0.098,3.402-0.196,5.096-0.319c1.182-0.085,2.358-0.188,3.537-0.286   c1.618-0.134,3.236-0.269,4.848-0.425c1.21-0.117,2.416-0.247,3.622-0.376c1.573-0.168,3.145-0.343,4.712-0.532   c1.219-0.147,2.435-0.304,3.65-0.464c1.548-0.204,3.093-0.416,4.634-0.64c1.214-0.176,2.426-0.358,3.636-0.547   c1.539-0.24,3.075-0.493,4.607-0.754c1.196-0.203,2.391-0.408,3.583-0.623c1.544-0.279,3.082-0.574,4.619-0.873   c1.168-0.227,2.336-0.452,3.499-0.691c1.568-0.322,3.129-0.664,4.69-1.008c1.118-0.246,2.238-0.485,3.352-0.742   c1.637-0.377,3.265-0.778,4.893-1.178c1.024-0.252,2.053-0.493,3.073-0.754c1.86-0.475,3.709-0.979,5.557-1.484   c0.777-0.212,1.56-0.411,2.335-0.629c2.604-0.732,5.197-1.492,7.776-2.282c0.645-0.198,1.282-0.412,1.925-0.613   c1.94-0.607,3.879-1.219,5.804-1.859c0.985-0.327,1.961-0.674,2.942-1.01c1.572-0.538,3.146-1.075,4.708-1.635   c1.078-0.387,2.148-0.791,3.221-1.188c1.451-0.537,2.901-1.073,4.343-1.628c1.115-0.43,2.222-0.873,3.331-1.314   c1.388-0.551,2.775-1.105,4.155-1.674c1.127-0.465,2.248-0.94,3.368-1.416c1.347-0.572,2.692-1.15,4.03-1.739   c1.126-0.495,2.248-0.998,3.368-1.505c1.322-0.598,2.639-1.205,3.951-1.819c1.116-0.522,2.231-1.049,3.34-1.583   c1.302-0.626,2.598-1.264,3.891-1.906c1.101-0.547,2.202-1.094,3.297-1.652c1.292-0.659,2.575-1.332,3.857-2.006   c1.078-0.567,2.157-1.131,3.228-1.708c1.295-0.698,2.578-1.414,3.863-2.128c1.04-0.578,2.084-1.15,3.117-1.739   c1.33-0.757,2.646-1.535,3.964-2.31c0.971-0.571,1.949-1.132,2.915-1.711c1.501-0.902,2.986-1.827,4.472-2.751   c0.766-0.476,1.54-0.939,2.301-1.42c2.188-1.384,4.358-2.793,6.512-4.224c0.925-0.615,1.836-1.249,2.755-1.872   c1.265-0.858,2.534-1.712,3.787-2.586c1.008-0.704,2.003-1.425,3.003-2.139c1.145-0.817,2.292-1.631,3.426-2.462   c1.028-0.753,2.043-1.52,3.062-2.283c1.09-0.817,2.18-1.632,3.259-2.461c1.027-0.789,2.044-1.589,3.061-2.389   c1.05-0.826,2.099-1.653,3.139-2.49c1.022-0.823,2.037-1.654,3.049-2.489c1.015-0.837,2.027-1.677,3.032-2.525   c1.012-0.854,2.019-1.713,3.021-2.578c0.985-0.85,1.964-1.707,2.939-2.568c1-0.883,1.997-1.769,2.986-2.663   c0.957-0.865,1.906-1.739,2.853-2.615c0.985-0.91,1.969-1.821,2.942-2.742c0.93-0.88,1.849-1.772,2.769-2.662   c0.969-0.938,1.94-1.873,2.898-2.822c0.901-0.892,1.788-1.798,2.678-2.7c0.955-0.967,1.915-1.93,2.859-2.908   c0.866-0.898,1.716-1.812,2.572-2.72c0.945-1.002,1.898-1.997,2.832-3.01c0.769-0.835,1.52-1.687,2.281-2.53   c1.933-2.141,3.839-4.307,5.718-6.496c0.719-0.838,1.448-1.668,2.159-2.513c0.935-1.111,1.848-2.239,2.768-3.361   c0.739-0.902,1.485-1.797,2.215-2.706c0.901-1.122,1.783-2.258,2.67-3.392c0.727-0.929,1.458-1.855,2.175-2.792   c0.871-1.138,1.727-2.287,2.584-3.436c0.708-0.95,1.418-1.898,2.117-2.855c0.845-1.157,1.677-2.324,2.507-3.492   c0.686-0.965,1.371-1.932,2.047-2.905c0.821-1.181,1.632-2.369,2.438-3.56c0.659-0.974,1.313-1.951,1.962-2.932   c0.799-1.208,1.592-2.421,2.375-3.64c0.629-0.978,1.251-1.961,1.87-2.946c0.778-1.238,1.553-2.478,2.316-3.727   c0.599-0.98,1.187-1.967,1.776-2.953c0.757-1.269,1.514-2.539,2.255-3.818c0.561-0.969,1.109-1.946,1.661-2.921   c0.745-1.316,1.492-2.631,2.219-3.957c0.507-0.925,0.998-1.859,1.497-2.789c0.745-1.39,1.496-2.778,2.222-4.18   c0.399-0.771,0.782-1.551,1.175-2.325c2.741-5.392,5.339-10.864,7.792-16.414c0.33-0.748,0.672-1.49,0.997-2.241   c0.647-1.495,1.269-3.002,1.895-4.508c0.389-0.935,0.786-1.866,1.166-2.805c0.59-1.456,1.158-2.923,1.728-4.389   c0.39-1.002,0.784-2.001,1.164-3.008c0.546-1.447,1.075-2.902,1.601-4.358c0.375-1.037,0.751-2.073,1.117-3.115   c0.509-1.451,1.002-2.908,1.491-4.367c0.355-1.059,0.707-2.118,1.051-3.181c0.473-1.461,0.935-2.927,1.389-4.396   c0.33-1.07,0.655-2.143,0.974-3.218c0.44-1.479,0.873-2.961,1.293-4.449c0.303-1.073,0.596-2.149,0.889-3.225   c0.408-1.503,0.812-3.007,1.2-4.517c0.273-1.066,0.534-2.137,0.797-3.207c0.377-1.534,0.754-3.068,1.11-4.611   c0.239-1.037,0.462-2.08,0.692-3.12c0.351-1.59,0.704-3.179,1.032-4.777c0.193-0.943,0.368-1.892,0.554-2.837   c0.334-1.705,0.674-3.409,0.982-5.123c0.097-0.537,0.179-1.079,0.273-1.617c0.807-4.619,1.533-9.265,2.147-13.945   c-16.358,9.289-33.055,17.95-50.098,25.933C643.034,421.641,639.263,423.362,635.484,425.051z"/>
	<path fill="#FFFFFF" d="M355.643,533.266c37.152,0,68.451-22.309,78.083-52.744c1.989-6.284,3.076-12.906,3.076-19.758   c0-8.309-1.585-16.283-4.466-23.717c-11.001-28.39-41.172-48.785-76.693-48.785c-35.522,0-65.693,20.395-76.693,48.785   c-2.88,7.434-4.466,15.408-4.466,23.717c0,6.853,1.087,13.474,3.076,19.758C287.192,510.956,318.491,533.266,355.643,533.266z    M295.116,438.797c9.701-21.48,33.169-36.675,60.527-36.675c27.358,0,50.826,15.195,60.527,36.674   c3.066,6.789,4.771,14.201,4.771,21.967c0,7.594-1.633,14.848-4.573,21.515c-9.575,21.717-33.177,37.126-60.726,37.126   c-27.549,0-51.15-15.408-60.725-37.126c-2.939-6.666-4.573-13.92-4.573-21.515C290.345,452.998,292.049,445.587,295.116,438.797z"/>
	<path fill="#FFFFFF" d="M355.643,513.765c25.208,0,48.218-13.773,57.257-34.273c2.651-6.013,3.995-12.314,3.995-18.728   c0-6.565-1.403-13.001-4.17-19.125c-9.151-20.263-32.09-33.877-57.082-33.877c-24.991,0-47.93,13.613-57.082,33.876   c-2.766,6.125-4.169,12.56-4.169,19.126c0,6.413,1.345,12.714,3.996,18.728C307.425,499.991,330.434,513.765,355.643,513.765z"/>
</g>
<g>
</g>
<g>
</g>
<g>
</g>
<g>
</g>
<g>
</g>
<script xmlns=""/></svg>